<svg xmlns="http://www.w3.org/2000/svg" 
  xmlns:xlink="http://www.w3.org/1999/xlink" version="1.1" x="0px" y="0px" viewBox="-55 147 500 600" style="enable-background:new -55 147 500 500;" xml:space="preserve">
  <g>
    <path d="M311.5,350.4H171.2c-32.4,0-58.6,26-58.6,58.1h257.5C370.1,376.4,343.8,350.4,311.5,350.4z" fill="currentcolor"/>
    <path fill="currentcolor" d="M393.9,309.8L393.9,309.8c-4.1,0-7.5,3.3-7.5,7.4V426H3.6V229.4c0-4.1-3.4-7.4-7.5-7.4l0,0c-28.2,0-51.1,22.7-51.1,50.7   v290.5c0,4.9,4,8.8,8.9,8.8h40.9c4.9,0,8.9-3.9,8.9-8.8v-79.1h382.8v79.1c0,4.9,4,8.8,8.9,8.8h40.9c4.9,0,8.9-3.9,8.9-8.8V360.5   C445,332.5,422.1,309.8,393.9,309.8z"/>
    <path fill="currentcolor" d="M97.6,388.2c0-20.9-17.1-37.8-38.1-37.8s-38.1,16.9-38.1,37.8v20.3h76.3v-20.3H97.6z"/>
    <rect fill="currentcolor" x="21.3" y="499" width="348.8" height="35.1"/>
  </g>
</svg>