<svg xmlns="http://www.w3.org/2000/svg" 
  xmlns:xlink="http://www.w3.org/1999/xlink" version="1.1" x="0px" y="0px" viewBox="0 0 64 64" enable-background="new 0 0 64 64" xml:space="preserve">
  <g>
    <g>
      <polygon fill="currentcolor" points="44.8,19.4 45.7,15.3 49.7,14.4 45.7,13.5 44.8,9.5 43.9,13.5 39.9,14.4 43.9,15.3   "/>
      <polygon fill="currentcolor" points="16.3,32.3 16.8,30.1 19,29.5 16.8,29 16.3,26.8 15.8,29 13.6,29.5 15.8,30.1   "/>
      <polygon fill="currentcolor" points="50.4,39.7 48.5,40.9 46.6,39.7 47.8,41.6 46.6,43.6 48.5,42.4 50.4,43.6 49.2,41.6   "/>
      <path fill="currentcolor" d="M46.9,45.8H16.5c-1.6,0-2.9,1.3-2.9,2.9v3.2c1.4,0,2.2,0.5,2.8,1c0.5,0.4,0.9,0.6,1.7,0.6s1.2-0.3,1.7-0.6    c0.6-0.4,1.4-1,2.8-1c1.4,0,2.2,0.5,2.8,1c0.5,0.4,0.9,0.6,1.7,0.6s1.2-0.3,1.7-0.6c0.6-0.4,1.4-1,2.8-1s2.2,0.5,2.8,1    c0.5,0.4,0.9,0.6,1.7,0.6s1.2-0.3,1.7-0.6c0.6-0.4,1.4-1,2.8-1c1.4,0,2.2,0.5,2.8,1c0.5,0.4,0.9,0.6,1.7,0.6s1.2-0.3,1.7-0.6    c0.6-0.4,1.4-1,2.8-1v-3.2C49.7,47.1,48.5,45.8,46.9,45.8z"/>
      <path fill="currentcolor" d="M45.2,55.3c-1.4,0-2.2-0.5-2.8-1c-0.5-0.4-0.9-0.6-1.7-0.6c-0.8,0-1.2,0.3-1.7,0.6c-0.6,0.4-1.4,1-2.8,1    c-1.4,0-2.2-0.5-2.8-1c-0.5-0.4-0.9-0.6-1.7-0.6s-1.2,0.3-1.7,0.6c-0.6,0.4-1.4,1-2.8,1c-1.4,0-2.2-0.5-2.8-1    c-0.5-0.4-0.9-0.6-1.7-0.6c-0.8,0-1.2,0.3-1.7,0.6c-0.6,0.4-1.4,1-2.8,1c-1.4,0-2.2-0.5-2.8-1c-0.5-0.4-0.9-0.6-1.7-0.6v5.1h36.2    v-5.1c-0.8,0-1.2,0.3-1.7,0.6C47.4,54.8,46.6,55.3,45.2,55.3z"/>
      <path fill="currentcolor" d="M17.5,34.1v4.4c0.2,0,0.4,0.1,0.6,0.1c0.8,0,1.2-0.3,1.7-0.6c0.6-0.4,1.4-1,2.8-1c1.4,0,2.2,0.5,2.8,1    c0.5,0.4,0.9,0.6,1.7,0.6s1.2-0.3,1.7-0.6c0.6-0.4,1.4-1,2.8-1s2.2,0.5,2.8,1c0.5,0.4,0.9,0.6,1.7,0.6s1.2-0.3,1.7-0.6    c0.6-0.4,1.4-1,2.8-1c1.4,0,2.2,0.5,2.8,1c0.5,0.4,0.9,0.6,1.7,0.6c0.2,0,0.4,0,0.6-0.1v-4.4c0-1.4-1.1-2.6-2.6-2.6H20    C18.6,31.5,17.5,32.6,17.5,34.1z"/>
      <path fill="currentcolor" d="M42.4,39.4c-0.5-0.4-0.9-0.6-1.7-0.6c-0.8,0-1.2,0.3-1.7,0.6c-0.6,0.4-1.4,1-2.8,1c-1.4,0-2.2-0.5-2.8-1    c-0.5-0.4-0.9-0.6-1.7-0.6s-1.2,0.3-1.7,0.6c-0.6,0.4-1.4,1-2.8,1c-1.4,0-2.2-0.5-2.8-1c-0.5-0.4-0.9-0.6-1.7-0.6    c-0.8,0-1.2,0.3-1.7,0.6c-0.6,0.4-1.4,1-2.8,1c-0.2,0-0.4,0-0.6,0v4.2h28.3v-4.2c-0.2,0-0.4,0-0.6,0C43.8,40.4,43,39.8,42.4,39.4z    "/>
      <path fill="currentcolor" d="M25.4,22.9c0.5,0.4,0.9,0.6,1.7,0.6s1.2-0.3,1.7-0.6c0.6-0.4,1.4-1,2.8-1s2.2,0.5,2.8,1    c0.5,0.4,0.9,0.6,1.7,0.6s1.2-0.3,1.7-0.6c0.6-0.4,1.4-1,2.8-1c0.7,0,1.2,0.1,1.6,0.3v-2.9c0-1.2-1-2.2-2.2-2.2H37l-2.8-5.6    L35,9.8h-3.4l0.7,1.8l-2.8,5.6h-0.4v-3.4h1.1V8.2h-4.7v5.5h1.1v3.4h-3.6c-1.2,0-2.2,1-2.2,2.2v2.9c0.4-0.2,0.9-0.3,1.6-0.3    C24,22,24.8,22.5,25.4,22.9z"/>
      <path fill="currentcolor" d="M42.3,24.3c-0.5-0.3-0.8-0.5-1.6-0.5c-0.8,0-1.2,0.3-1.7,0.6c-0.6,0.4-1.4,1-2.8,1c-1.4,0-2.2-0.5-2.8-1    c-0.5-0.4-0.9-0.6-1.7-0.6s-1.2,0.3-1.7,0.6c-0.6,0.4-1.4,1-2.8,1c-1.4,0-2.2-0.5-2.8-1c-0.5-0.4-0.9-0.6-1.7-0.6    c-0.8,0-1.1,0.2-1.6,0.5v5.8h21.3V24.3z"/>
      <path fill="currentcolor" d="M33.3,9.1c0.7,0,1.3-0.6,1.3-1.3c0-0.5-0.3-0.9-0.7-1.1c0-0.1,0-0.1,0-0.2c0-0.4-0.3-0.7-0.7-0.7    s-0.7,0.3-0.7,0.7c0,0.1,0,0.1,0,0.2C32.3,6.9,32,7.3,32,7.8C32,8.5,32.6,9.1,33.3,9.1z"/>
      <circle fill="currentcolor" cx="28" cy="6.5" r="1.3"/>
    </g>
  </g>
</svg>