<svg xmlns="http://www.w3.org/2000/svg" 
  xmlns:xlink="http://www.w3.org/1999/xlink" version="1.1" viewBox="10 10 82 82" xml:space="preserve">
  <g>
    <path d="M91.2,46.1c-0.9-8.4-7.3-15.3-15.2-16.2c-3.9-0.5-7.8,0.5-11.1,2.6c-3.3-2.2-7.2-3.1-11.1-2.6c-0.5,0.1-1,0.2-1.5,0.3   c0.7,0.3,1.4,0.7,2,1.1c2.3,1.5,4.3,3.5,5.8,5.9c0.5,0.8,1,1.7,1.4,2.6c1,0.8,2.2,1.2,3.5,1.2c1.3,0,2.6-0.5,3.6-1.3   c1.9-1.6,4.2-2.3,6.6-2c4.3,0.5,7.8,4.4,8.3,9.1c0.3,3.1-0.6,6.2-2.6,8.5l-0.4,0.5L68.1,69.1c-0.9,0.9-2,1.5-3.2,1.5   c-1.2,0-2.4-0.5-3.2-1.5l-5.3-5.7l-1-1.1l-1-1.1L51,57.7l-1-1.1l-0.7-0.7L49,55.5l-0.1-0.1c-2-2.3-2.9-5.4-2.6-8.5   c0.2-2.3,1.2-4.4,2.6-6.1c-0.4-0.3-0.8-0.6-1.2-0.8c-0.8-0.4-1.7-0.7-2.6-0.8c-1.1-0.1-2.2,0-3.2,0.3c-0.8,0.3-1.5,0.7-2.2,1.2   c-0.7,1.7-1.2,3.5-1.4,5.4c-0.4,4.1,0.1,8.4,2.4,11.6c0.7,0.9,1.7,2.2,2.8,3.5c0.3,0.4,0.6,0.7,1,1.1c0.3,0.4,0.6,0.7,1,1.1   c1.1,1.2,2.3,2.5,3.4,3.8c0.3,0.4,0.7,0.7,1,1.1c0.3,0.4,0.7,0.7,1,1.1c2.7,2.9,4.8,5.1,4.8,5.1c2.4,2.6,5.6,4,9,4   c3.4,0,6.6-1.4,9-4c0,0,11.6-12.2,14.9-16.8C91.1,54.5,91.6,50.2,91.2,46.1z" fill="currentcolor"/>
    <path d="M44.6,64.5c-0.3-0.4-0.6-0.7-1-1.1l-5.3,5.7c-0.9,0.9-2,1.5-3.2,1.5c-1.2,0-2.4-0.5-3.2-1.5L19.7,55.9l-0.4-0.5   c-2-2.3-2.9-5.4-2.6-8.5c0.5-4.8,4-8.6,8.3-9.1c2.4-0.3,4.7,0.4,6.6,2c1,0.8,2.3,1.3,3.6,1.3c1.3,0,2.5-0.4,3.5-1.2c0,0,0,0,0.1,0   c0.7-0.6,1.5-1.1,2.3-1.4c0.7-0.3,1.4-0.5,2.1-0.6c0.7-0.1,1.5-0.1,2.2,0c1.2,0.1,2.4,0.6,3.4,1.2c0.4,0.3,0.8,0.5,1.2,0.9   c0.4,0.3,0.7,0.6,1,1c1.4,1.6,2.4,3.7,2.6,6.1c0.3,3.1-0.6,6.2-2.6,8.5L51,55.6l1,1.1l3.3,3.6l1,1.1c1.2-1.4,2.2-2.6,2.8-3.5   c2.3-3.2,2.8-7.5,2.4-11.6c-0.2-1.9-0.7-3.7-1.4-5.4c-0.3-0.8-0.7-1.6-1.2-2.4c-0.4-0.7-0.8-1.3-1.3-1.9c-1.5-2-3.5-3.6-5.7-4.8   c-0.6-0.3-1.3-0.6-2-0.9c-0.7-0.3-1.4-0.5-2.1-0.6c-0.5-0.1-1-0.2-1.5-0.3c-3.9-0.5-7.8,0.5-11.1,2.6c-3.3-2.2-7.2-3.1-11.1-2.6   c-8,1-14.4,7.8-15.2,16.2c-0.4,4.1,0.1,8.4,2.4,11.6c3.3,4.6,14.9,16.8,14.9,16.8c2.4,2.6,5.6,4,9,4c3.4,0,6.6-1.4,9-4   c0,0,2.1-2.2,4.8-5.1c-0.3-0.4-0.6-0.7-1-1.1C46.9,67.1,45.7,65.8,44.6,64.5z" fill="currentcolor"/>
  </g>
</svg>