<svg xmlns="http://www.w3.org/2000/svg" version="1.1" x="0px" y="0px" viewBox="0 0 100 100">
  <g transform="translate(0,-952.36218)">
    <path style="text-indent:0;text-transform:none;direction:ltr;block-progression:tb;baseline-shift:baseline;color:currentcolor;enable-background:accumulate;" d="M 30.864677,957.3658 C 21.033555,957.3658 13,965.45988 13,975.36507 c 0,9.9052 8.033555,17.99928 17.864677,17.99928 3.181242,0 6.185651,-0.83932 8.777264,-2.31241 l 14.980276,18.56176 a 3.532477,2.5290374 0 0 0 0.06203,0.062 l 0,31.6862 -6.947375,0 a 2.977744,3.0001794 0 0 0 -0.31015,0 2.9814819,3.0039455 0 1 0 0.31015,5.9998 l 19.849642,0 a 2.977744,3.0001794 0 1 0 0,-5.9998 l -6.947375,0 0,-31.6862 a 3.532477,2.5290374 0 0 0 0.06203,-0.062 l 25.835548,-31.99872 a 3.532477,2.5290374 0 0 0 -3.070491,-3.78109 l -14.887231,0 a 3.5383375,2.5332332 0 0 0 0,5.06229 l 8.777263,0 -2.791356,3.46861 -33.80642,0 -2.791356,-3.46861 20.687048,0 a 3.5383375,2.5332332 0 0 0 0,-5.06229 l -10.017866,0 C 47.848844,964.64982 40.176444,957.3658 30.864676,957.3658 z m -2.977446,6.40599 0,4.34358 -3.070491,-3.09363 c 0.944458,-0.55665 1.980011,-0.97098 3.070491,-1.24995 z m 5.954892,0 c 1.09048,0.27897 2.126034,0.6933 3.070492,1.24995 l -3.070492,3.09363 0,-4.34358 z m -13.243432,5.46853 3.101506,3.12488 -4.342109,0 c 0.282177,-1.10659 0.678867,-2.16853 1.240603,-3.12488 z m 20.531973,0 c 0.805694,1.37169 1.309906,2.93373 1.519738,4.59357 l -6.078953,0 4.559215,-4.59357 z m -21.803591,9.12463 3.845868,0 -2.667295,2.96863 c -0.517601,-0.91738 -0.914065,-1.9176 -1.178573,-2.96863 z m 8.560158,3.68736 0,4.9373 c -1.142742,-0.29234 -2.213356,-0.74762 -3.194552,-1.3437 l 3.194552,-3.5936 z m 5.954892,1.84367 1.95395,2.40615 c -0.627417,0.28683 -1.275615,0.51008 -1.95395,0.68748 l 0,-3.09363 z m 11.75471,4.46857 24.12972,0 -12.06486,14.96815 -12.06486,-14.96815 z" fill="currentcolor" fill-opacity="1" stroke="none" marker="none" visibility="visible" display="inline" overflow="visible"/>
  </g>
</svg>