<?xml version="1.0" encoding="UTF-8"?>
<svg viewBox="0 0 60 52" version="1.1" 
    xmlns="http://www.w3.org/2000/svg" 
    xmlns:xlink="http://www.w3.org/1999/xlink">
    <g id="Page-1" stroke="none" stroke-width="1" fill="none" fill-rule="evenodd">
        <g fill="currentcolor" fill-rule="nonzero">
            <path d="M32.812,4.654 L30,7.46 L27.188,4.654 C20.978,-1.541 10.875,-1.541 4.665,4.654 C1.657,7.656 0,11.648 0,15.895 C0,20.14 1.657,24.132 4.666,27.134 L29.294,51.708 C29.489,51.902 29.745,52 30,52 C30.255,52 30.511,51.902 30.707,51.708 L55.335,27.134 C58.343,24.132 60,20.14 60,15.895 C60,11.649 58.343,7.657 55.334,4.655 C49.125,-1.541 39.021,-1.542 32.812,4.654 Z M15,18 C13.346,18 12,16.654 12,15 C12,13.346 13.346,12 15,12 C16.654,12 18,13.346 18,15 C18,16.654 16.654,18 15,18 Z M12.653,20 L17.347,20 C18.909,20 20.193,21.173 20.334,22.729 L20.95,29.499 L18.445,31.169 C18.167,31.354 18,31.666 18,32 L18,37.613 L9.118,28.75 L9.666,22.728 C9.807,21.173 11.091,20 12.653,20 Z M41.555,31.168 L39.05,29.498 L39.666,22.728 C39.807,21.173 41.091,20 42.653,20 L47.347,20 C48.909,20 50.193,21.173 50.336,22.742 L50.96,28.673 L42,37.613 L42,32 C42,31.666 41.833,31.354 41.555,31.168 Z M45,18 C43.346,18 42,16.654 42,15 C42,13.346 43.346,12 45,12 C46.654,12 48,13.346 48,15 C48,16.654 46.654,18 45,18 Z M53.921,25.718 L52.78,26.857 L52.327,22.547 C52.137,20.456 50.698,18.799 48.786,18.229 C49.532,17.355 50,16.237 50,15 C50,12.243 47.757,10 45,10 C42.243,10 40,12.243 40,15 C40,16.237 40.468,17.355 41.215,18.229 C39.302,18.799 37.863,20.456 37.674,22.547 L37.005,29.909 C36.972,30.274 37.141,30.629 37.446,30.832 L40,32.535 L40,39.609 L30,49.587 L20,39.609 L20,32.535 L22.555,30.832 C22.86,30.629 23.03,30.274 22.996,29.909 L22.327,22.547 C22.137,20.456 20.698,18.799 18.786,18.229 C19.532,17.355 20,16.237 20,15 C20,12.243 17.757,10 15,10 C12.243,10 10,12.243 10,15 C10,16.237 10.468,17.355 11.215,18.229 C9.302,18.799 7.863,20.456 7.674,22.547 L7.277,26.913 L6.079,25.718 C3.448,23.094 2,19.604 2,15.895 C2,12.184 3.448,8.695 6.079,6.071 C8.794,3.361 12.36,2.007 15.927,2.007 C19.493,2.007 23.061,3.362 25.776,6.071 L29.294,9.582 C29.685,9.971 30.316,9.971 30.707,9.582 L34.225,6.071 C39.656,0.653 48.492,0.653 53.922,6.071 C56.552,8.694 58,12.184 58,15.895 C58,19.604 56.552,23.094 53.921,25.718 Z" id="Shape"></path>
            <path d="M30.386,15.935 L30,16.309 L29.615,15.935 C28.336,14.693 26.255,14.693 24.976,15.935 C24.347,16.545 24,17.358 24,18.227 C24,19.096 24.347,19.909 24.976,20.519 L29.304,24.718 C29.498,24.906 29.749,25 30,25 C30.251,25 30.502,24.906 30.696,24.718 L35.024,20.519 C35.653,19.908 36,19.095 36,18.227 C36,17.359 35.653,16.545 35.024,15.935 C33.744,14.691 31.663,14.692 30.386,15.935 Z M33.631,19.083 L30,22.606 L26.369,19.083 C26.131,18.853 26,18.549 26,18.227 C26,17.905 26.131,17.601 26.369,17.371 C26.624,17.123 26.959,16.999 27.295,16.999 C27.631,16.999 27.966,17.123 28.222,17.371 L29.304,18.421 C29.692,18.798 30.309,18.798 30.697,18.421 L31.779,17.371 L31.779,17.371 C32.29,16.875 33.121,16.875 33.632,17.371 C33.869,17.601 34,17.904 34,18.227 C34,18.55 33.869,18.853 33.631,19.083 Z" id="Shape"></path>
        </g>
    </g>
</svg>