<?xml version="1.0" encoding="UTF-8"?>
<svg viewBox="0 0 92 50" version="1.1" 
    xmlns="http://www.w3.org/2000/svg" 
    xmlns:xlink="http://www.w3.org/1999/xlink">
    <g id="Page-1" stroke="none" stroke-width="1" fill="none" fill-rule="evenodd">
        <g fill="currentcolor" fill-rule="nonzero">
            <g id="Group">
                <path d="M90.12644,15.158 C90.5108,14.70527 90.76581,14.91749 90.79096,15.36456 C90.830383,16.2146732 90.8271723,17.0662282 90.78134,17.91602 C90.73082,19.05979 90.63702,20.20166 90.55873,21.39065 L90.30691,21.20473 L90.13969,21.68633 C90.0694743,21.5013556 90.0171909,21.3100636 89.98356,21.11509 C89.93756,20.54901 89.91967,19.98064 89.8848,19.29622 C89.08026,19.61528 89.3533,20.32322 89.21063,20.79729 C89.091656,21.356156 89.0249981,21.9248894 89.01152,22.49612 L88.84752,22.49181 L88.84752,20.78394 C88.504349,21.5578352 88.3187391,22.3923255 88.30152,23.23872 C89.07475,22.73606 89.99752,22.64219 90.14571,21.67667 C90.2074346,21.7994918 90.2834803,21.9145758 90.37226,22.01952 C90.67316,22.30225 90.55577,22.51233 90.27335,22.69461 C88.1999633,24.0327433 86.1256567,25.36946 84.05043,26.70476 C82.64412,27.61139 81.23465,28.51331 79.8358,29.43128 C79.35644,29.74585 78.90488,30.10277 78.59614,30.32728 C78.06458,29.756 77.63682,29.29628 77.209,28.83663 C76.93235,28.51363 76.65574,28.19063 76.38288,27.87208 L67.01122,33.6183 L67.40109,34.15622 C68.68875,33.58157 69.94016,33.118 71.09744,32.48283 C72.57696,31.67083 73.97582,30.71263 75.41918,29.83347 C76.00481,29.47677 76.61618,29.16235 77.21583,28.82869 C77.38269,29.39131 76.90117,29.5395 76.58323,29.73463 C75.20983,30.57753 73.83237,31.41644 72.42492,32.20036 C71.27192,32.84254 70.07592,33.4075 68.89576,34.00036 C68.6627862,34.0709384 68.4388193,34.1683942 68.22838,34.29076 C68.0373553,34.5596105 67.7186212,34.7076826 67.3899587,34.6802595 C67.0612963,34.6528364 66.7715085,34.4539902 66.62768,34.1572 C66.4997469,34.0699739 66.3374542,34.0502162 66.19233,34.1042 C65.55833,34.37661 65.13696,34.16893 64.81795,33.3942 C64.37652,34.56131 63.96472,35.5703 63.61195,36.59955 C62.8645644,38.5955935 61.7200006,40.4192637 60.24751,41.96022 C59.14351,43.19357 57.96719,44.36245 56.87242,45.60356 C56.13248,46.44241 55.51725,47.39179 54.77142,48.22471 C54.3448484,48.7869126 53.7439018,49.191806 53.06265,49.37601 C52.1875861,49.5260865 51.3535509,48.9476299 51.18748,48.07546 C50.67034,46.25939 51.3933,44.88408 52.5034,43.55962 C53.43551,42.44748 54.31772,41.29123 55.17223,40.11823 C55.3740363,39.8380908 55.4385307,39.481795 55.34773,39.14869 C55.0818833,38.8209227 54.6159098,38.7376447 54.25299,38.95304 C53.03917,39.28263 51.81236,39.56428 50.56442,39.87126 L50.63958,40.52009 C49.30258,41.46466 48.23413,41.02928 47.19385,39.96664 C47.2607909,40.1753832 47.311341,40.3890317 47.34504,40.60564 C47.4312789,41.1636686 47.4536331,41.7297084 47.41167,42.2928 C47.3819494,42.4990526 47.2687068,42.6840025 47.0985168,42.8042474 C46.9283269,42.9244923 46.7161724,42.9694463 46.51184,42.92856 C45.6010476,42.8963942 44.7598599,42.4329234 44.24608,41.68019 C43.88246,41.14669 43.46494,40.64994 43.04842,40.10655 C42.9095,40.34233 42.81355,40.54392 42.68301,40.71981 C42.482019,41.0502004 42.1403941,41.2699473 41.7564032,41.3158409 C41.3724123,41.3617345 40.9886224,41.2286872 40.71543,40.95497 C39.95017,40.27687 39.22607,39.55232 38.48365,38.84839 C38.3512,38.7228 38.2165,38.59959 38.06471,38.45845 C37.4785806,38.7701936 37.0323267,39.2924269 36.8158,39.92 C36.6498712,40.3091715 36.8020685,40.7609119 37.16967,40.97033 C38.05922,41.71233 38.96515,41.35058 39.89067,41.13499 C40.1403136,41.1017457 40.3926862,41.093919 40.64391,41.11163 C40.42145,41.24724 40.206,41.39673 39.97416,41.51374 C39.81152,41.59582 39.62046,41.61974 39.45255,41.69349 C38.4810474,42.0912938 37.3663442,41.8787999 36.60932,41.15149 C36.2442073,40.7753335 36.1402394,40.2169236 36.34551,39.73457 C36.3916241,39.5166268 36.4518646,39.3019136 36.52585,39.09179 C36.01704,39.20274 35.60611,39.28333 35.19985,39.38295 C34.4834566,39.5525675 33.7414916,39.2262317 33.38236,38.58357 C33.3095327,38.2785096 33.3121894,37.960292 33.3901,37.65649 C33.4432858,37.399405 33.5160683,37.1467674 33.60781,36.90079 C33.11141,36.95872 32.67232,37.01622 32.23187,37.05998 C31.563551,37.1953123 30.8895632,36.8549923 30.6017,36.23685 C30.3000488,35.6720746 30.4486244,34.9721568 30.9537,34.57863 C31.21896,34.32857 31.44122,34.03292 31.79683,33.62819 C31.1661923,33.2982852 30.483895,33.0783841 29.7793,32.97795 C28.7651969,32.9654572 27.7653336,32.7375369 26.846,32.3093 C24.37607,31.36046 21.94264,30.3166 19.65631,29.37693 C19.3703024,29.6196517 19.0284005,29.7874032 18.66141,29.86507 C18.2041904,29.6885074 17.7798463,29.4364599 17.40606,29.11943 C17.4571743,28.9589269 17.5232477,28.8035783 17.60341,28.65543 C17.3924458,28.0862736 16.9536856,27.6308784 16.39277,27.39889 C14.0245277,25.8585923 11.455136,24.6523306 8.75724,23.81421 C7.44524,23.43321 6.12385,23.06478 4.84994,22.57762 C3.53382,22.07435 2.26694,21.44073 0.98886,20.84217 C0.876805901,20.7273319 0.79476867,20.5866569 0.75,20.43258 C0.891342625,20.3923711 1.03969216,20.3831039 1.18494,20.40541 C2.13676,20.82913 3.06152,21.31802 4.02761,21.70428 C5.33261,22.22603 6.65041,22.72793 7.99248,23.14184 C10.2691471,23.7358868 12.4595364,24.6215492 14.50927,25.77684 C15.56962,26.43478 16.65032,27.06003 17.72569,27.69349 C17.8742263,27.7586876 18.028262,27.8105583 18.18598,27.84849 C18.00866,27.20095 17.87165,26.61342 18.58092,26.66536 C18.80983,26.14213 19.00127,25.71193 19.1855,25.27866 C19.2509546,25.1642035 19.2895909,25.0363893 19.2985,24.90484 C19.24586,24.29478 19.23742,24.29551 19.78038,24.05731 C19.57838,23.2041 19.73701,22.89269 20.47111,22.70104 C19.8884,21.83304 19.97465,21.39773 20.7605,21.24066 C20.6211216,20.9766747 20.6312862,20.6587545 20.787243,20.4042117 C20.9431998,20.1496689 21.2218303,19.9962362 21.52032,20.00053 C21.3619872,19.8306864 21.2490356,19.6236618 21.19191,19.3986 C21.224457,19.1547789 21.1523716,18.9085653 20.9934657,18.7207969 C20.8345599,18.5330285 20.6036564,18.4212206 20.35781,18.413 C16.7536105,17.1672568 13.3525746,15.3973861 10.26422,13.16038 C8.1248,11.656 6.06961,10.0316 3.98217,8.45368 C3.86377651,8.33856807 3.76020669,8.20913519 3.67386,8.06838 L3.82324,7.8829 C4.05281,8.0329 4.29504,8.16671 4.50991,8.33538 C6.00737,9.51077 7.44105,10.77791 9.00591,11.85463 C11.5680189,13.6895925 14.2870194,15.2949392 17.13129,16.652 C18.37678,17.218 19.67248,17.67456 20.95301,18.16071 C21.1196321,18.2043376 21.2963956,18.1864624 21.45091,18.11036 C21.7194567,17.9512288 22.0415059,17.909168 22.341914,17.9939916 C22.6423221,18.0788152 22.8948119,18.2831034 23.04047,18.55919 C23.2472097,18.9559322 23.6505257,19.211635 24.09755,19.22938 C25.62574,19.48501 27.13709,19.84329 28.66697,20.08625 C31.1010345,20.3977881 33.5577119,20.4954949 36.00883,20.37825 C37.3869266,20.3484361 38.7437278,20.7217636 39.91259,21.45238 C41.0187153,22.10906 42.1587127,22.7069308 43.32783,23.2435 C43.5455541,23.3097796 43.7806184,23.2876868 43.98218,23.182 C45.76397,22.31878 47.48706,21.31242 49.32143,20.58534 C51.5882999,19.631697 54.1267744,19.5452968 56.45324,20.3426 C56.6151288,20.4086055 56.7976978,20.4010855 56.95361,20.32199 C57.80939,19.26917 59.13451,18.92216 60.18405,18.15505 C61.89365,16.90549 63.72605,15.82399 65.50677,14.6716 C65.7681763,14.6659633 66.0064859,14.5205841 66.1311079,14.2907267 C66.2557299,14.0608694 66.2475241,13.7818367 66.10961,13.5597 L65.51417,14.67839 C65.18224,14.72939 65.03164,14.60339 65.15928,14.27246 C65.2236094,14.1001736 65.321298,13.9422718 65.44675,13.8078 C66.74126,12.47835 68.04675,11.15963 69.34343,9.83225 C69.77101,9.39458 70.1471,8.90063 70.60677,8.50152 C71.88349,7.39299 73.19795,6.32805 74.48609,5.23252 C76.20042,3.77441 77.90339,2.30293 79.61373,0.84012 C79.7372197,0.748972606 79.8661596,0.66545053 79.99983,0.59002 C80.0716245,0.724305683 80.0859528,0.881948932 80.0395455,1.02697808 C79.9931382,1.17200722 79.8899548,1.29204835 79.75354,1.35971 C78.78154,2.03027 77.95289,2.91224 76.96908,3.56134 C75.6053,4.46111 75.63367,5.92329 75.29322,7.23823 C75.20916,7.56281 74.8685,8.04002 75.47234,8.29251 C75.0381277,8.59229239 74.7714548,9.0799255 74.75334,9.60726 C74.75259,11.02407 74.60349,12.4402 74.54323,13.85782 C74.51095,14.6165 74.53749,15.37767 74.53749,16.16319 C74.9890624,16.075975 75.289588,15.6456955 75.21602,15.1917 C75.2338703,14.8506273 75.2809666,14.5117165 75.35679,14.1787 C75.38095,14.36319 75.39601,14.54943 75.43132,14.7317 C75.48355,15.00139 75.55024,15.26828 75.61077,15.53636 C75.5159261,15.8180358 75.4477762,16.1080052 75.40722,16.40244 C75.3759,17.03362 75.39757,17.66744 75.39757,18.30015 L75.18857,18.29515 L75.18857,16.14285 C74.47076,16.55185 74.29414,18.07692 74.78057,19.13061 L75.35502,18.50495 C75.39602,19.44206 75.4337,20.30562 75.47142,21.16918 L75.718,21.21857 C75.9714543,20.9247446 76.1622262,20.5822488 76.27862,20.21208 C76.2837561,19.5144721 76.2372457,18.817441 76.13947,18.1267 L75.64847,18.40333 C76.66961,17.46972 75.98883,16.30851 76.25688,15.2334 L75.60029,15.54419 C75.645173,15.4534816 75.6982999,15.3670914 75.759,15.28611 C76.3333793,14.3504521 76.4794273,13.2135646 76.16019,12.16311 C76.2635759,11.7199101 76.3370119,11.2702538 76.38,10.81719 C76.41354,9.81767 76.39046,8.81625 76.39046,7.79925 L75.5717,8.1661 C75.6088416,8.07374979 75.6663749,7.99098807 75.74,7.924 C76.2403543,7.60879828 76.54899,7.06340591 76.56158,6.47218 C76.78428,5.52018 77.08575,4.58653 77.36023,3.64697 C77.4374053,3.55951227 77.5274836,3.48435264 77.62735,3.42409 C77.57911,3.70077 77.56335,3.85565 77.52435,4.00444 C77.31818,4.79044 77.07652,5.56895 76.91396,6.36369 C76.9203102,6.63782114 76.9806368,6.90801171 77.09149,7.15881 C76.9390358,7.4726068 76.8270886,7.80451026 76.75834,8.14654 C76.67049,9.33478 76.64002,10.52726 76.58805,11.71822 C76.56046,12.58388 76.52382,13.44939 76.51863,14.31509 C76.5919779,14.4257689 76.6934473,14.5149447 76.81263,14.57347 C76.19508,15.42488 76.60327,16.35475 76.63847,17.25656 C76.972616,16.4000315 77.0379586,15.4620456 76.8258,14.56746 C76.97186,13.5998867 77.1179833,12.63206 77.26417,11.66398 L76.57696,11.7147 C77.1251809,11.4558037 77.4278233,10.8579068 77.31187,10.26282 C77.27779,9.82218 77.43245,9.36662 77.39596,8.92658 C77.34409,8.30205 77.6885,7.62508 77.18096,7.05418 C77.24954,6.48744 77.3181033,5.9207 77.38665,5.35396 L77.53106,5.34219 L77.76566,6.57143 C77.79556,6.16271 77.81318,5.92226 77.84524,5.48372 L78.34651,6.07612 C78.45077,5.24068 78.55532,4.40274 78.66367,3.53441 L78.8989,3.63248 C79.0751933,3.18501333 79.25101,2.73881 79.42635,2.29387 L79.614,2.35366 C79.3873721,2.95376066 79.2040654,3.56933909 79.06549,4.19566 C78.9936309,4.85519795 78.9762388,5.51953558 79.01349,6.18193 C79.02109,6.85093 79.04977,7.52041 79.09455,8.18798 C78.9682691,8.8210966 79.0613811,9.47834338 79.35855,10.05147 C79.00824,10.64566 79.04355,14.82747 79.44009,15.18014 L79.06532,16.27514 L78.81897,15.64828 C78.9247767,15.4313251 78.9958109,15.1990821 79.02947,14.96006 C78.99365,13.48759 78.9256,12.0159 78.86778,10.53525 C78.62422,10.60464 78.41838,10.66325 78.21231,10.72211 C78.3580134,10.5948357 78.4966755,10.4597189 78.62768,10.31736 C78.7567117,10.2038269 78.848121,10.0537012 78.88975,9.88695 C78.86703,8.69943 78.81224,7.51253 78.76713,6.32544 L78.58038,6.31689 C77.74518,7.70818 78.15187,9.23798 78.20173,10.72799 L78.02,12.55285 L77.89416,12.56074 C77.8488267,12.1216067 77.8034567,11.6824733 77.75805,11.24334 L77.54305,11.2469 C77.2311665,14.0087341 77.1616077,16.7925662 77.33517,19.56653 C77.4892059,19.4169194 77.6006823,19.229035 77.65817,19.02214 C77.6790872,18.8802872 77.6822181,18.7363783 77.66749,18.59375 C77.6848,17.02731 77.69739,15.46075 77.72749,13.89457 C77.7586836,13.726728 77.8160494,13.564828 77.89749,13.41479 L78.0422,13.43099 L78.0422,16.0472 L78.60998,15.84275 C77.5009,16.67065 78.18538,17.86353 77.90967,18.93135 C78.15861,18.81726 78.31918,18.74366 78.47961,18.67021 C77.60468,19.60194 78.09844,20.7197 77.96869,21.8217 L78.69031,21.44211 C78.6795886,21.5196382 78.6498403,21.5933063 78.60372,21.65654 C78.0593235,22.0088195 77.8321307,22.6915946 78.05692,23.29982 C78.1652177,24.0791187 78.2227822,24.8646289 78.22925,25.65139 C78.2104005,25.7166414 78.1761493,25.7764088 78.12938,25.82566 L77.96967,25.82275 C77.90989,25.43646 77.86388,25.04732 77.78487,24.66501 C77.7268152,24.4522491 77.6541322,24.2437528 77.56734,24.04101 C77.6531133,23.5548367 77.7387967,23.0687267 77.82439,22.58268 L77.4892,22.55615 L77.57488,24.03604 C77.61344,24.34269 77.65029,24.64956 77.69088,24.95593 C77.8118467,25.86855 77.9336433,26.78106 78.05627,27.69346 L77.75555,27.78457 C77.6927702,27.1756565 77.554492,26.5769165 77.3439,26.00214 C77.3439,26.6658333 77.34385,27.32942 77.34375,27.9929 C77.2680299,27.8760017 77.2148609,27.7459623 77.18699,27.6095 C77.19309,26.89572 77.24265,26.18214 77.24199,25.4685 C77.24124,24.64974 77.20352,23.83101 77.18188,23.01226 L76.93625,23.00489 C76.47513,23.77299 77.17575,24.68307 76.76963,25.52751 C76.5449979,24.7795791 76.3745565,24.0164326 76.25963,23.244 C76.2494169,22.5005497 76.2958344,21.7574011 76.39848,21.021 L76.22448,20.97743 C76.0038102,21.1044837 75.821125,21.2882289 75.69535,21.50963 C75.69391,22.25021 75.79564,22.991 75.85953,23.73171 C76.34099,23.66801 76.09614,24.01371 76.10107,24.18853 C76.0765589,24.9769186 76.0957817,25.7660599 76.15865,26.55232 C76.2377269,27.2198435 76.6994354,27.7796514 77.33971,27.98432 L78.47528,29.536 C78.533234,29.469749 78.5817316,29.3957895 78.61939,29.31623 C78.62381,28.93201 78.62225,28.54772 78.62225,28.20382 L78.19625,28.1412 C78.3791494,27.7721887 78.536246,27.3909414 78.66641,27.0002 C78.80341,26.46985 78.85614,25.91836 78.96554,25.38011 C79.0736383,25.1187328 79.0633989,24.8233749 78.9374591,24.5701113 C78.8115193,24.3168477 78.5821903,24.130436 78.30854,24.05889 C78.3151239,24.0033799 78.3316796,23.9495153 78.35741,23.89989 C79.22822,23.85062 78.97946,23.27261 78.91287,22.76278 C78.8787,22.50106 78.92633,22.22836 78.88913,21.96745 C78.8420298,21.7863734 78.7733759,21.6116013 78.68464,21.44688 C78.9560126,20.5213161 79.0060039,19.5449198 78.83058,18.59648 C78.7851879,18.5582053 78.7315562,18.5309514 78.67388,18.51685 C78.74853,18.19039 78.84248,17.86685 78.89249,17.53665 C78.9193797,17.2030653 78.9718676,16.8720405 79.04949,16.5465 C79.1479167,16.8848133 79.2463533,17.2231267 79.3448,17.56144 L79.6138,17.51255 C79.6138,15.92662 79.58672,14.34009 79.62146,12.75492 C79.65581,11.18602 79.70074,9.614 79.83625,8.05161 C79.97266,6.47908 79.63158,4.87685 80.01131,3.32193 L80.17802,3.33059 L79.93953,14.49665 L80.14408,14.56912 C80.2492678,14.4128183 80.3240845,14.238108 80.36462,14.05412 C80.37334,11.23812 80.36362,8.42201 80.3602,5.60595 C80.36005,5.47634 80.38001,5.34669 80.39777,5.12909 C80.7862191,5.32586392 80.9860131,5.7659211 80.87848,6.18788 C80.76271,7.09719 80.70471,8.01388 80.61725,8.99127 C80.9317352,9.00497199 81.2364939,8.88050587 81.4514736,8.65056577 C81.6664532,8.42062567 81.7701663,8.10819447 81.73537,7.79534 C81.7269418,6.97802451 81.7696117,6.16098136 81.86313,5.34899 C81.9035857,5.04794848 82.0157287,4.76102028 82.19013,4.51233 C81.8368878,8.25777193 81.721613,12.0218513 81.845,15.78189 C82.08892,15.72289 82.23994,15.68636 82.39081,15.64997 C81.9848991,16.0179991 81.8049081,16.5738677 81.91806,17.10997 C81.93841,17.43325 81.88864,17.76397 81.93744,18.08109 C82.0095044,18.2408811 82.1160866,18.3827151 82.24952,18.49639 C81.9489184,19.3223256 81.9503141,20.2279949 82.25346,21.053 C82.3653469,20.9930562 82.4467703,20.8887117 82.47772,20.76561 C82.48854,20.1142 82.48758,19.4621 82.46483,18.81112 C82.4230844,18.6888876 82.354084,18.5777511 82.26305,18.48612 C82.30341,17.5424667 82.3437633,16.5988 82.38411,15.65512 C82.4530233,14.6059267 82.5218267,13.5567267 82.59052,12.50752 C82.71521,10.57298 82.83032,8.63776 82.97193,6.70452 C83.0127763,6.42539347 83.1355506,6.16467061 83.3247,5.95538 C83.12619,9.00313 82.9277,12.05087 82.72603,15.14738 C83.3638423,15.0315568 83.7995137,14.4368986 83.71769,13.79384 C83.69217,12.39184 83.76638,10.98698 83.83415,9.58499 C83.8693176,9.23859757 83.9994303,8.90863728 84.21015,8.63147 C84.0465311,9.86176832 84.0520625,11.1086717 84.22659,12.33747 C83.98412,12.54918 83.90441,13.07263 84.15001,14.28868 C84.19201,14.1296 84.2457,13.97249 84.27281,13.81091 C84.2852039,13.609637 84.3405404,13.4133492 84.4351,13.23524 L84.59223,14.185 L84.48123,14.62511 C84.3216333,14.6607718 84.1692686,14.7233314 84.03066,14.81011 C84.00866,15.51475 84.01572,16.22029 84.01572,16.92561 L84.2792,16.93114 L84.2792,15.07289 L84.44753,15.08076 L84.62217,16.94142 C84.29473,17.54586 84.55984,18.40983 84.537,19.26347 C84.72,19.25422 84.83492,19.24841 84.95006,19.24247 C84.34506,20.10998 84.69743,21.02618 84.77815,21.92954 C84.9847495,21.1867271 85.1509003,20.4332533 85.27587,19.67244 C85.2118152,19.500842 85.1031672,19.3494251 84.96112,19.23379 C85.2143811,18.7551952 85.3012747,18.2059608 85.20812,17.67256 C85.16722,16.60156 85.27622,15.52556 85.28343,14.45137 C85.223518,14.2525548 85.1188384,14.0701146 84.97743,13.91806 C85.301854,13.6708284 85.4765865,13.2743186 85.44014,12.86806 C85.50352,11.97754 85.66114,11.09325 85.79508,10.20867 C85.8181027,10.0474074 85.8849476,9.89555784 85.98833,9.76967 C86.0972595,9.70035937 86.2205237,9.65672603 86.3488,9.64207 C86.402491,9.77802006 86.4241474,9.92450997 86.41209,10.07018 C85.80669,10.53105 86.06001,11.24497 85.87695,11.82449 C85.7835563,12.1784367 85.7425239,12.5441572 85.75516,12.91 C85.7831642,13.1319591 85.8391178,13.3494872 85.92169,13.55741 C85.7866196,13.7642962 85.6926239,13.995242 85.64483,14.23765 C85.61408,15.6168 85.63022,16.99699 85.71583,18.38992 C86.37689,17.25749 85.84446,15.9097 86.4062,14.74911 L86.24637,18.05351 C86.7418546,17.8928339 87.0623583,17.4131662 87.02119,16.89391 C87.06319,15.44904 87.16581,14.00519 87.2795,12.56372 C87.3422206,12.2213634 87.441319,11.8866828 87.57511,11.56537 L87.72147,11.60774 C87.56901,13.4439067 87.4165367,15.2800733 87.26405,17.11624 L87.43061,17.135 C87.5177033,15.8188333 87.60479,14.50267 87.69187,13.18651 L87.97038,13.20425 C87.88984,14.41195 87.80932,15.61966 87.72415,16.89685 C88.3211229,16.8009309 88.7562494,16.279941 88.74427,15.67543 C88.7679155,14.9621691 88.8312569,14.2507781 88.934,13.54456 C89.0069056,13.3585636 89.1171223,13.1894644 89.25786,13.04768 C89.3169424,13.236346 89.3498297,13.4322335 89.3556,13.62985 C89.27653,14.35893 89.16118,15.08399 89.06819,15.81168 C89.0590489,15.9690655 89.1253427,16.1214094 89.24674,16.22199 L89.96767,14.59847 L90.13375,14.62275 C90.13375,14.8032167 90.13378,14.9837233 90.13384,15.16427 C89.6357472,16.4828505 89.2258962,17.8330965 88.907,19.20607 L89.12633,19.26184 C89.2072367,18.8076067 89.2881633,18.3533733 89.36911,17.89914 L89.52566,17.93021 L89.52566,19.02243 C90.16166,18.44086 89.44379,17.30132 90.50001,16.9419 C90.416,16.32552 90.67032,15.66 90.12644,15.158 Z M80.4109,22.92165 C80.3256067,21.9810967 80.2403933,21.04049 80.15526,20.09983 L80.28212,17.53667 L80.09867,17.51313 C80.0364381,17.5776248 79.989752,17.6554762 79.96217,17.74075 C79.95177,18.43732 79.94907,19.1343 79.9659,19.83063 C80.0090794,19.9331306 80.0772184,20.0231988 80.16411,20.09263 C79.69578,20.95514 80.1162,21.84349 80.10268,22.71889 C80.1912927,22.8085819 80.2999912,22.8758818 80.41978,22.91522 C80.1138952,23.4402057 80.0692673,24.0775069 80.299,24.64 C80.51173,24.077 80.91274,23.52395 80.4109,22.92165 Z M85.45409,25.01334 C84.8384367,25.3856333 84.22277,25.7579233 83.60709,26.13021 L83.80609,26.4031 L85.45836,25.01871 C86.31949,24.54387 87.40486,24.35637 87.76142,23.27687 L86.99835,22.9111 L85.9578,24.2391 L86.69045,24.08381 C86.18953,24.46036 85.82176,24.73681 85.45408,25.01334 L85.45409,25.01334 Z M81.28243,25.25743 C81.398709,25.1751336 81.4951368,25.0679028 81.56467,24.94357 C81.740993,24.3011692 81.8647712,23.6454906 81.93478,22.98302 C81.891603,22.5942332 81.7837471,22.2153973 81.61567,21.86217 C82.05106,20.97144 81.59617,20.08092 81.71791,19.15486 C81.37752,19.2891 81.13823,19.38348 80.89891,19.47786 C81.0637727,19.3330735 81.220067,19.1788126 81.367,19.01586 C81.5250623,18.8735713 81.6374767,18.6876847 81.69008,18.48162 C81.6847,17.82428 81.60987,17.16752 81.56118,16.51062 L81.11133,16.53834 C81.5728782,16.107354 81.7517845,15.4528513 81.57365,14.84701 C81.54014,13.55046 81.58591,12.25193 81.59508,10.95419 C81.59977,10.29203 81.59589,9.62981 81.59589,8.97477 C81.3125699,8.94368825 81.0323599,9.05564037 80.8484559,9.27339189 C80.664552,9.49114341 80.6010724,9.78613704 80.67913,10.06026 C80.7192564,10.7519841 80.7242628,11.4452986 80.69413,12.13753 C80.66155,13.54901 80.61313,14.96015 80.56619,16.37126 C80.55799,16.61839 80.56141,16.83317 80.90703,16.75893 C80.7609208,16.9395727 80.651536,17.1470369 80.58503,17.36965 C80.5498973,17.9972438 80.5495969,18.626303 80.58413,19.25393 C80.6712418,19.3528818 80.7823461,19.4277583 80.90676,19.47136 C80.25376,20.40358 80.78757,21.33762 80.77542,22.29828 L81.44042,22.04 C80.8312,22.80529 80.8312,22.80529 81.0933,23.474 L81.25959,22.80179 C81.60452,23.97086 81.47123,24.33717 80.77735,24.24987 L80.39092,25.57074 L80.9012,25.63374 C80.63234,26.0230333 80.3634567,26.4123267 80.09455,26.80162 C80.4777906,26.8450492 80.8635341,26.7449778 81.17733,26.52072 C81.2931026,26.1102688 81.3287851,25.6813695 81.28243,25.25743 Z M67.61021,13.3199 C67.2392951,13.8511886 67.1976723,14.54561 67.50247,15.1174 C67.6876677,15.504476 67.6885273,15.9544092 67.50481,16.34219 C67.27775,16.10205 67.13112,15.94696 66.98459,15.79173 L66.98459,12.86887 L66.67323,12.88179 C66.7963,13.84933 66.33273,14.84516 66.9918,15.78679 C67.4502533,16.42661 67.90869,17.06643 68.36711,17.70625 L68.55979,17.60238 C68.55979,15.94038 68.5584567,14.2784 68.55579,12.61644 C68.5376106,12.5595164 68.5066236,12.5075179 68.46521,12.46444 C68.58831,12.07744 68.71141,11.69037 68.86529,11.20649 L69.15279,11.68502 L69.51779,10.83277 L70.01413,10.85706 L70.01413,9.74051 C69.4850965,10.1323297 69.006436,10.5879359 68.589,11.097 C68.4506198,11.5372018 68.4104565,12.0023944 68.47134,12.4598 C68.3400693,12.7523349 68.2522159,13.0624695 68.21056,13.38039 C68.22595,14.28964 68.31776,15.19739 68.36564,16.10645 C68.3639039,16.3281144 68.347629,16.5494262 68.31692,16.76896 L68.09936,16.78316 C68.0321548,16.5105814 67.9816113,16.2341631 67.94801,15.95544 C67.89815,15.18444 67.88336,14.41116 67.83062,13.64044 C67.7800915,13.51951 67.7015224,13.4123336 67.6014,13.32776 L67.97831,11.88042 L67.74909,11.77952 C67.5282827,11.951785 67.3557439,12.1781924 67.24821,12.43678 C67.339,12.72635 67.01394,13.24331 67.61021,13.3199 Z M83.46605,20.348 C84.03392,19.49224 83.56859,18.5979 83.57064,17.67831 C83.2379503,17.8177039 82.9707951,18.0785091 82.82344,18.40775 C82.8253465,19.1544899 82.8780213,19.9002362 82.9811,20.63983 C83.0003043,20.6443168 83.019949,20.6466479 83.03967,20.64678 L82.90317,22.93214 L83.08941,22.94686 L83.27851,22.4832 L83.41619,22.50484 L83.41619,24.97395 L83.59077,25.0087 C83.8693538,24.4380214 84.0635648,23.8299024 84.16732,23.20339 C84.1324705,22.3263087 84.0136745,21.4545832 83.81256,20.60016 C83.7214537,20.4868741 83.6018654,20.3998481 83.46605,20.348 L83.46605,20.348 Z M71.66366,13.57827 L71.99266,11.17087 C71.199178,11.8544416 70.9195948,12.9622072 71.29366,13.94045 L70.98873,15.20166 L70.78094,14.73147 L70.57486,14.70628 C70.4068189,15.0685714 70.2967822,15.4550297 70.24878,15.8515 C70.28944,16.84479 70.42057,17.83557 70.54378,18.82385 C70.62111,19.44412 70.74917,20.05807 70.85451,20.67485 C71.02176,18.93685 70.50426,17.22148 70.86229,15.50563 L71.02545,15.50523 L71.02545,16.44434 L71.46793,16.25866 C71.0798257,16.7831681 70.9372073,17.4497569 71.07672,18.08715 C71.19249,19.03601 71.25918,19.99086 71.35039,20.94281 C71.3610464,20.9674051 71.3792002,20.9880053 71.40226,21.00167 L71.5568,20.6145 C71.5977717,21.0084312 71.6743105,21.3978461 71.78548,21.77798 C72.53124,22.83031 73.37088,23.81607 74.27289,24.94863 C74.42722,23.19805 74.84527,21.67263 74.37189,20.09438 L73.76471,20.64132 C73.7687978,20.4724019 73.8079992,20.3061837 73.87982,20.15324 C74.60649,19.69087 74.33868,18.98609 74.34241,18.34824 C74.34505,17.89697 74.34292,17.44568 74.34292,16.99439 L74.12492,16.92666 C73.7790708,17.2490641 73.5155946,17.6497172 73.3566,18.095 C73.3815936,19.1930295 73.469756,20.2887109 73.62065,21.37661 C73.68995,22.08753 73.77185,22.79723 73.8481,23.50748 L73.6231,23.53359 C73.47154,22.3089233 73.31997,21.0842567 73.16839,19.85959 C73.20767,20.34579 73.16175,20.84185 73.21699,21.32638 C73.34307,22.43277 73.36317,22.43048 73.01972,22.70338 C72.95757,21.30972 72.89629,19.93549 72.83438,18.54765 C72.15627,18.77871 72.33588,19.30421 72.34859,19.77554 C72.36103,20.23498 72.35129,20.69502 72.35129,21.1548 L72.15711,21.1528 C72.08189,19.4828 72.00663,17.8128 71.93029,16.11915 L71.5306,16.19593 C71.9008168,15.4877028 72.0217419,14.6754354 71.87388,13.89008 C71.8309832,13.7701996 71.7587049,13.6629924 71.66366,13.57827 Z M73.77584,9.4764 C73.673363,9.73395862 73.594098,10.0001565 73.53899,10.27182 C73.4428167,11.09382 73.3675733,11.9181867 73.31326,12.74492 C73.28203,13.22107 73.30758,13.70092 73.30758,14.26357 C73.9656058,13.9666204 74.3861083,13.3090164 74.37958,12.58712 C74.33393,11.63329 74.52952,10.66964 74.57917,9.70812 C74.5424294,9.47968881 74.4629731,9.26022652 74.34496,9.06122 C74.42638,8.73595 74.52796,8.41412 74.58396,8.08453 C74.65059,7.69269 74.67806,7.29419 74.72248,6.89853 L74.90854,6.91473 L74.90854,8.15327 C75.08673,7.18039 75.29732,6.03078 75.50954,4.87185 C75.15954,5.15829 74.84712,5.45295 74.49736,5.69334 C73.1599027,6.60024818 71.9221117,7.64606473 70.80464,8.81334 C69.77752,9.89624 70.46188,11.06482 70.15283,12.2512 C70.9465596,11.9049746 71.3629313,11.0260224 71.12805,10.19253 C71.1313135,9.94805707 71.1647771,9.70492444 71.22768,9.46866 L71.52314,9.50575 L71.3459,11.12209 L71.5389,11.15096 C72.3139,10.40407 71.5829,9.32296 72.01637,8.4228 C72.62881,9.06935 71.89883,9.83505 72.36989,10.57169 C72.62389,9.4191 72.37398,8.27395 73.02681,7.31135 L72.76014,9.95847 C72.9487511,9.95092215 73.1246736,9.86142839 73.2418343,9.71342667 C73.3589949,9.56542496 73.4057228,9.37365851 73.36978,9.18835 C73.40948,8.50916 73.50634,7.83335 73.57935,7.15606 L73.86405,7.17912 C73.85618,7.35301 73.84716,7.52685 73.84067,7.70079 C73.8186033,8.29265 73.7969967,8.88452 73.77585,9.4764 L73.77584,9.4764 Z M42.27924,39.26362 L42.35824,39.22194 C41.88424,38.35707 41.43801,37.4755 40.92989,36.63116 C40.1944647,35.2798295 39.1425058,34.1268542 37.86408,33.27095 C36.54729,32.4579 35.21591,31.66839 33.9022,30.85047 C33.7805107,30.7246709 33.685948,30.5752249 33.62437,30.41139 C33.8044177,30.3991914 33.9851431,30.4213345 34.15692,30.47664 C35.00392,30.96869 35.83057,31.49551 36.67561,31.991 C36.8194957,32.0860787 36.9976685,32.1137429 37.16361,32.06677 C37.83761,31.51982 38.48272,30.9372 39.18161,30.32649 L36.272,28.40233 L36.36784,28.19857 C36.5463877,28.2085471 36.7223399,28.245917 36.88953,28.30937 C37.50745,28.66425 38.09989,29.06365 38.71924,29.41582 C40.63976,30.50782 41.88524,32.29009 43.25437,33.92337 C44.67924,35.62309 45.96388,37.44046 47.30513,39.20994 C47.3539865,39.3003729 47.3892232,39.3975238 47.4097,39.49825 L47.5803,39.35696 C47.0119594,38.8829254 46.7467733,38.1370628 46.8883,37.41064 C47.0087,36.92155 47.31104,36.64536 47.75493,36.87583 C48.1499096,37.1046928 48.4989675,37.4048961 48.78436,37.76118 C49.0751949,38.1392832 49.3412095,38.535845 49.58073,38.94837 L49.73388,38.84918 C49.5721,38.45851 49.4278,38.05948 49.24553,37.67861 C48.3506519,35.9306226 47.2198067,34.3139023 45.88473,32.87382 C44.2607085,30.7880062 42.4163674,28.8835136 40.38373,27.19341 C40.0454226,26.9140791 39.723238,26.6157763 39.41873,26.29994 L39.58673,26.04742 C39.888871,26.1448942 40.1782618,26.2781751 40.44873,26.44442 C41.13944,26.98795 41.79622,27.57481 42.46262,28.14896 C44.4530057,29.8212749 46.248285,31.712894 47.81437,33.7879 C48.58763,34.83704 49.51286,35.77416 50.36937,36.7619 L50.52828,36.62853 C50.25886,36.17827 49.96098,35.7423 49.72613,35.27468 C49.4776611,34.9571888 49.4509084,34.5192922 49.6588802,34.1739153 C49.866852,33.8285384 50.2663976,33.6473413 50.66324,33.71843 C50.24899,33.03522 49.85461,32.34634 49.42343,31.68134 C48.40055,30.10374 47.33575,28.55286 46.33358,26.96239 C45.2895296,25.3781994 43.8573947,24.087585 42.1735,23.2134 C41.5664,22.87492 40.9221,22.59676 40.34018,22.22079 C38.8730554,21.3152085 37.1723084,20.8603701 35.449,20.91272 C32.7725737,20.9848658 30.0951786,20.8109717 27.45057,20.39323 C26.16622,20.1539 24.88628,19.89085 23.60479,19.63623 C23.16179,19.54823 22.79926,19.55373 22.68687,20.13037 C22.5901998,20.2948571 22.4534401,20.4321775 22.28935,20.52952 C22.2874187,20.8244283 22.265223,21.1188552 22.22292,21.41072 C22.1168746,21.6600406 22.0270214,21.9159419 21.95392,22.17683 C21.92381,22.7151 21.80607,23.11027 21.28103,23.03153 C21.3425419,23.4111888 21.3764475,23.7948077 21.38248,24.17937 C21.3316529,24.4451043 21.2501055,24.704029 21.13948,24.95093 C21.1115069,25.2113218 21.0354346,25.4642575 20.91513,25.69688 C20.7418968,25.8094034 20.541535,25.8731496 20.33513,25.88141 C20.4309569,26.2696695 20.4570288,26.6718682 20.41213,27.06925 C20.1755779,27.6740147 19.8932978,28.2598798 19.56774,28.82176 C19.84474,28.94415 20.08289,29.05609 20.32609,29.15576 C21.57244,29.66656 22.85033,30.11176 24.06015,30.6977 C25.7978507,31.6047231 27.6890254,32.1808031 29.63729,32.39658 C30.1863225,32.4476933 30.7216926,32.5971034 31.21785,32.83768 C33.391183,33.847818 35.3672907,35.2368668 37.05365,36.93979 C37.62509,37.53269 38.29286,38.03279 38.99196,38.64079 C38.9916404,38.4353767 39.001653,38.2300773 39.02196,38.02567 C39.0031305,37.5609917 39.2760318,37.1338599 39.7056,36.95567 C40.123004,36.893663 40.5315554,37.113247 40.71014,37.49558 C41.22163,38.09475 41.755,38.67532 42.27924,39.26362 Z M57.54547,20.91014 L57.38225,21.00087 C57.1792849,21.018558 56.9750875,21.0166425 56.77249,20.99515 C55.87794,20.81653 54.98915,20.60898 54.09465,20.43015 C53.7446548,20.3175407 53.3758654,20.2751632 53.00945,20.30545 C51.32821,20.68382 49.57386,20.78317 48.01734,21.65332 C46.74551,22.36432 45.43711,23.00996 44.09886,23.70862 C44.53753,24.21378 44.85773,24.61078 45.20836,24.97878 C45.6429398,25.3450161 46.0455903,25.7475428 46.41196,26.18201 C47.48287,27.79645 48.48919,29.45371 49.52112,31.09401 C49.9216,31.73056 50.29272,32.38872 50.73388,32.99585 C51.5878381,34.0868134 52.2797755,35.2953791 52.78827,36.58413 C52.9024092,36.9201145 52.853458,37.2900989 52.65587,37.58484 C52.3436845,37.8182185 51.9477049,37.9094608 51.56487,37.83623 C51.12269,37.695405 50.7126684,37.468655 50.35833,37.16899 C49.85524,36.80124 49.39383,36.37649 48.88604,35.95237 C49.35795,37.02006 49.79261,38.04345 50.27263,39.0451 C50.3980039,39.2158813 50.6006342,39.3124501 50.81225,39.30227 C52.42425,38.96298 54.02025,38.54369 55.63779,38.2367 C56.5384493,38.097158 57.4479371,38.0222234 58.35929,38.01247 C58.5409862,38.0823095 58.7016374,38.1977595 58.82577,38.3477 C58.6406027,38.436178 58.4380989,38.4824347 58.23288,38.48313 C57.4121872,38.3149104 56.560371,38.3873651 55.77988,38.69178 C56.0873955,39.2601423 55.9821015,39.963355 55.5216,40.41672 C54.90136,41.2284 54.22428,41.99755 53.62202,42.8218 C52.9371366,43.7316117 52.2993882,44.6759666 51.71129,45.65114 C51.14952,46.61386 51.6199,47.57966 51.92535,48.51685 C52.0073112,48.6312833 52.1152361,48.7246536 52.24027,48.7893 C52.70869,49.17112 53.56213,48.77905 54.11357,48.1693 C54.83428,47.3723 55.46383,46.49321 56.1801,45.6919 C57.2505,44.49438 58.37677,43.3469 59.45257,42.15406 C60.6581402,40.9603511 61.6724465,39.5878938 62.45974,38.08506 C63.15956,36.54811 63.75961,34.96506 64.3741,33.39077 C64.4495648,33.1594685 64.4317944,32.9078492 64.32457,32.68945 C62.92118,30.15145 61.51,27.61745 60.06851,25.10099 C59.25824,23.68644 58.38845,22.306 57.54547,20.91014 Z M75.86618,27.53751 C75.8354062,27.4402677 75.7950341,27.3463284 75.74566,27.25708 C74.7494,26.09351 73.7194,24.95719 72.76107,23.7633 C71.83541,22.61013 70.88772,21.47508 70.00007,20.28839 C68.81448,18.70339 67.48369,17.22751 66.27659,15.65761 C66.1667079,15.4626903 65.9746014,15.3278891 65.7539287,15.2908582 C65.533256,15.2538273 65.3076699,15.3185359 65.14018,15.46691 C63.7065333,16.3339967 62.2838,17.2189967 60.87198,18.12191 C59.99526,18.68574 59.1604,19.31419 58.29364,19.89407 C57.64052,20.33101 57.60108,20.41929 58.05199,21.09866 C58.53754,21.83017 59.09645,22.51734 59.53443,23.27524 C60.64683,25.20013 61.69595,27.16149 62.79679,29.09324 C63.57398,30.457 64.40579,31.78956 65.18936,33.14981 C65.2457549,33.3613582 65.4087741,33.5279491 65.6190506,33.588915 C65.829327,33.6498808 66.0561739,33.5963246 66.21698,33.44775 C68.47315,32.11037 70.73353,30.77994 72.97648,29.42069 C73.963,28.8229 74.91137,28.16242 75.86618,27.53751 Z M47.00063,41.48581 C47.0259945,41.2975607 47.0236563,41.1066118 46.99369,40.91904 C46.6884342,40.0160357 46.2946525,39.1454217 45.81809,38.3199 C44.39001,36.2519 42.85915,34.25398 41.34064,32.2498 C40.9941481,31.8567991 40.6170904,31.4918426 40.213,31.15835 C39.78353,32.13135 38.77761,32.30229 38.043,32.83926 C39.3101018,33.6559885 40.356579,34.7721852 41.09,36.08926 C41.51553,36.85114 41.94365,37.61403 42.41886,38.34509 C43.01669,39.2648 43.65672,40.15754 44.29452,41.05049 C44.4790077,41.2780898 44.6783602,41.4932269 44.89127,41.69449 C44.6010684,40.9762875 44.2718342,40.2744811 43.90504,39.59221 C43.716304,39.2050385 43.8496027,38.7378615 44.21423,38.50858 C44.3632582,38.3930503 44.5543126,38.3461901 44.7398841,38.379652 C44.9254557,38.4131139 45.0881099,38.5237541 45.1874,38.68406 C45.3510915,38.8653067 45.5026283,39.0571713 45.64102,39.2584 C46.07326,39.9475 46.49007,40.64627 47.00063,41.48581 Z M37.487,37.96068 L35.40741,36.00649 C34.94805,36.39736 34.48264,36.73561 34.09065,37.14428 C33.7177826,37.4700357 33.6423064,38.0208957 33.91381,38.43494 C34.1686292,38.9097729 34.7395783,39.1172781 35.23981,38.91686 C35.46207,38.82686 35.72819,38.84568 35.95088,38.75644 C36.4688,38.54892 37.18495,38.72969 37.487,37.96068 Z M34.99211,35.60924 C34.16943,35.08318 33.43418,34.57808 32.65898,34.14435 C32.4134657,34.0706076 32.1477365,34.1125865 31.93691,34.25842 C31.6049226,34.4967164 31.3134032,34.7868346 31.07351,35.11767 C30.8967394,35.3751743 30.8619015,35.7045114 30.9808839,35.9933011 C31.0998664,36.2820907 31.356589,36.4913037 31.66345,36.54955 C32.8568657,36.7336986 34.0714385,36.3905951 34.99211,35.60924 L34.99211,35.60924 Z M75.82952,26.45169 C75.49468,24.83681 75.73995,23.13716 75.0601,21.48845 C75.2612347,20.7518352 75.2634742,19.9750622 75.06659,19.2373 C74.8415804,19.4791377 74.7067863,19.7911299 74.68491,20.12073 C74.76284,21.33827 74.90926,22.55129 75.01559,23.76727 C75.0199615,24.057819 75.006533,24.3483629 74.97538,24.63727 L74.56632,24.29119 C74.5748658,25.1842948 75.0554111,26.0061863 75.82952,26.45169 L75.82952,26.45169 Z M69.75975,18.673 L69.50961,18.69468 C69.2462239,17.0907091 69.1416113,15.4646784 69.19729,13.84018 C69.022076,14.0184209 68.9124005,14.2507539 68.88614,14.49931 C68.9623402,15.4145467 68.9919718,16.333065 68.97492,17.25131 C68.87277,18.40505 69.57383,19.07419 70.26519,19.99225 C70.26519,19.55498 70.28938,19.29451 70.26107,19.03987 C70.11707,17.74411 69.93886,16.4518 69.81594,15.15419 C69.76073,14.57142 69.80656,13.97908 69.80656,13.39108 L69.48886,13.40161 C69.48886,14.27721 69.45364,15.15461 69.49869,16.02791 C69.54435,16.91168 69.66944,17.79142 69.75975,18.673 Z M42.38051,40.1309 C41.66905,39.33172 40.97113,38.53972 40.26317,37.75681 C40.01272,37.47987 39.82541,37.55268 39.6726,37.88213 C39.4880521,38.2880758 39.5955098,38.7672027 39.93575,39.05545 C40.35326,39.50007 40.82512,39.89317 41.26398,40.31836 C41.82594,40.86281 41.843,40.86546 42.38051,40.1309 Z M49.85565,40.15465 C49.35065,39.44199 48.89606,38.74288 48.37703,38.09546 C48.1660384,37.814975 47.8754686,37.6045309 47.54317,37.49154 C47.0986,37.81778 47.38898,38.24516 47.5825,38.623 C47.646728,38.726925 47.7205541,38.824602 47.80301,38.91475 C48.09225,39.28425 48.39934,39.64124 48.66746,40.02545 C49.08234,40.62 49.23621,40.65271 49.85565,40.15464 L49.85565,40.15465 Z M74.35144,13.95246 L74.1875,13.83693 C73.8408784,14.0553083 73.5547947,14.3574142 73.35561,14.71541 C73.2824579,15.5909746 73.2691136,16.4705092 73.31567,17.34789 C74.84372,16.48073 74.18383,15.106 74.35144,13.95246 Z M44.81256,38.87262 C44.28205,39.4423 44.28205,39.4423 44.83827,40.53417 C45.2799,41.4011 46.23104,42.33126 46.83132,42.27438 C46.14853,41.12383 45.50835,40.04509 44.81256,38.87262 Z M87.59945,20.10825 L87.76051,20.21325 C88.0899834,20.0429325 88.3688189,19.7888876 88.56899,19.47665 C88.6361441,18.6394634 88.6491445,17.7988128 88.60791,16.95995 L88.42638,16.88595 C88.1452802,17.0507489 87.9108851,17.2845554 87.74538,17.56524 C87.6246,18.40252 87.63777,19.2591 87.59945,20.10825 Z M52.22653,37.3 L52.33253,37.07325 C51.84776,36.30708 51.37725,35.53125 50.86734,34.78217 C50.7064447,34.6284681 50.5180592,34.5064205 50.31202,34.4224 C50.2180693,34.6294313 50.1797477,34.857389 50.20084,35.08376 C50.6126608,35.7966362 51.0668628,36.4841737 51.561,37.14267 C51.7653464,37.2522035 51.994768,37.3064383 52.22653,37.3 L52.22653,37.3 Z M86.24153,21.05347 L86.39009,21.19054 C86.6574371,20.9853059 86.8700019,20.7172642 87.00893,20.41019 C87.0307177,19.6034078 87.0062944,18.79604 86.93578,17.99205 C85.8447,18.64843 86.26486,19.63213 86.04534,20.55458 L86.43871,20.17952 L86.53383,20.23552 L86.24153,21.05347 Z M82.7884,17.87028 C83.7283384,17.2329213 84.0088526,15.9735357 83.42828,14.9975 C83.1681537,15.2085531 82.9590203,15.4755988 82.81647,15.77873 C82.7631156,16.4746418 82.7537503,17.173228 82.78843,17.87032 L82.7884,17.87028 Z M71.0108,12.04541 C70.1960347,12.7183619 69.9046072,13.8379196 70.28785,14.82272 C71.213,14.06211 70.97113,13.04828 71.0108,12.04541 Z M72.28036,18.54861 C72.83017,18.06625 72.92877,16.09961 72.45611,15.23235 C72.1464566,16.3100781 72.0863564,17.4441808 72.28037,18.54861 L72.28036,18.54861 Z M72.48436,10.82205 L72.24065,10.80836 L72.24065,15.15267 L72.566,15.16207 C72.63013,13.718 72.39632,12.2654 72.48434,10.822 L72.48436,10.82205 Z M79.741,23.67041 L79.60293,23.69083 L78.98085,26.97554 L79.50285,25.71404 L79.7926,26.08615 C79.9067016,26.0132073 79.9994384,25.9113337 80.06137,25.7909 C79.97512,25.08157 79.85253,24.37666 79.741,23.67041 Z M79.64732,18.01807 C78.98761,18.27483 78.87689,19.28984 79.33278,20.82507 C79.87585,19.8563 79.52563,18.92875 79.64729,18.01807 L79.64732,18.01807 Z M86.315,23.04594 C87.16781,22.58129 87.06244,21.83641 86.99386,21.03668 L86.17522,21.62214 C86.2428641,21.8068883 86.2752804,22.0026787 86.27079,22.19937 C85.80737,22.51817 86.06956,22.77491 86.315,23.04594 Z M79.49975,23.39894 C79.8141201,22.5958187 79.8456957,21.7095982 79.58928,20.88614 C79.11275,21.22365 79.07735,21.92612 79.49978,23.39894 L79.49975,23.39894 Z M88.57015,20.11904 L88.36422,20.03288 C88.1378202,20.1625178 87.9395442,20.3360004 87.78099,20.54318 C87.6670623,20.8094981 87.6328091,21.1031398 87.68238,21.38853 C88.14938,21.55212 87.95996,21.72859 87.77401,21.96372 C87.7247035,22.0677428 87.696539,22.1805194 87.69115,22.29551 C87.8226883,22.2603097 87.9425321,22.1908396 88.03845,22.09419 C88.23551,21.44176 88.39723,20.77869 88.57019,20.119 L88.57015,20.11904 Z M80.15276,28.62592 C81.23308,28.21837 81.33781,28.06667 81.18406,27.14092 C80.65247,27.5029 79.71365,27.54332 80.15279,28.62592 L80.15276,28.62592 Z M76.65314,20.07163 C76.9480927,19.2428995 77.0030954,18.3477364 76.81182,17.48913 C76.4660556,18.3066968 76.410079,19.217878 76.65317,20.07163 L76.65314,20.07163 Z M73.26078,10.09963 C72.6039498,10.7152038 72.4258067,11.6873741 72.82169,12.49585 C73.40492,11.7653 73.17065,10.94981 73.26081,10.09966 L73.26078,10.09963 Z M78.91689,27.4807 L78.91689,29.48876 C79.40581,29.15595 79.96024,29.00603 79.72852,28.28505 C79.06331,28.40235 79.05045,28.38812 78.91692,27.48073 L78.91689,27.4807 Z M77.579,19.61379 C76.96713,20.54479 77.34374,21.37858 77.40977,22.1981 L77.579,22.20588 L77.579,19.61379 Z M80.37828,14.78941 C79.9126,15.08632 79.81071,16.09587 80.17476,17.21425 C80.24019,16.435 80.30562,15.65567 80.37832,14.78941 L80.37828,14.78941 Z M82.498,21.39184 L82.22694,21.40645 C82.1684566,22.1961429 82.2604387,22.9897594 82.498,23.74514 L82.498,21.39184 L82.498,21.39184 Z M84.10372,19.55593 L84.2686,19.5407 L84.2686,17.3591 L84.10372,17.36032 L84.10372,19.55593 Z M76.76117,22.74446 L76.94928,22.74551 C77.23028,21.99433 76.85719,21.24383 76.91703,20.49288 L76.65286,20.4977 C76.6889533,21.24662 76.7250433,21.99554 76.76113,22.74446 L76.76117,22.74446 Z M72.78697,14.60757 L73.01625,14.62221 L73.01625,12.471 C72.4029,13.2381 73.01305,13.95831 72.78693,14.60758 L72.78697,14.60757 Z M80.06313,26.45572 C79.41625,26.50704 79.21702,27.05459 79.58275,27.88958 L80.06313,26.45572 Z M81.56606,25.89237 L81.79796,26.01021 C82.2388761,25.7193902 82.484324,25.2098125 82.43687,24.68376 L82.24328,24.585 L81.56606,25.89237 Z M77.76518,7.09915 C77.70829,8.33541 77.64974,9.60737 77.59118,10.87932 L77.76518,10.88315 L77.76518,7.09915 L77.76518,7.09915 Z M69.33363,11.92345 L69.08722,11.88567 C69.01322,12.4258567 68.9391767,12.9660433 68.86509,13.50623 C69.49338,13.06241 69.24063,12.46133 69.33359,11.92346 L69.33363,11.92345 Z M85.23,24.70916 C84.7592918,24.5986874 84.2668703,24.7671804 83.96251,25.14286 C83.967396,25.2727891 83.9996237,25.4002278 84.05709,25.51686 L85.23,24.70916 Z M85.93221,18.81987 L85.72688,18.801 C85.5600818,19.5155465 85.573311,20.2603278 85.76538,20.9685 C85.82248,20.23312 85.87733,19.52649 85.93221,18.81987 L85.93221,18.81987 Z M82.65634,25.40862 L82.88812,25.44906 C83.1205198,25.0462789 83.1742596,24.5647775 83.03638,24.12067 L82.849,24.09735 L82.65634,25.40862 Z M44.78222,30.77649 L44.67415,30.87049 L46.51115,33.02304 L46.59357,32.95162 L44.78222,30.77649 Z M70.01788,11.32168 L69.82833,11.29705 L69.588,12.7698 C70.0418856,12.4395671 70.2180656,11.8460765 70.01788,11.32168 Z M84.35348,21.80168 L84.35348,19.92893 L84.12684,19.95079 L84.35348,21.80168 Z M81.5207,27.34935 L81.79209,27.42964 L82.03039,26.64507 L81.73539,26.55889 L81.5207,27.34935 Z M84.63593,23.61677 L84.3808,23.526 L84.0793,24.51614 L84.27198,24.58414 L84.63593,23.61677 Z" id="Shape"></path>
                <path d="M90.66482,21.3 C90.7863267,20.0255267 90.9078533,18.7510567 91.0294,17.47659 L91.25,17.49759 C91.13898,18.7669233 91.02794,20.0362567 90.91688,21.30559 L90.66482,21.3 Z" id="Path"></path>
                <path d="M82.55425,9.231 C82.41853,10.5075733 82.2827967,11.7841467 82.14705,13.06072 L81.96868,13.04494 L82.32437,9.23344 L82.55425,9.231 Z" id="Path"></path>
                <polygon id="Path" points="80.186 1.79429 79.48013 4.93509 79.29362 4.8937 79.9564 1.72493"></polygon>
                <path d="M75.76063,12.45514 C75.6805633,12.7574933 75.60051,13.05985 75.52047,13.36221 C75.4581367,13.5977967 75.3959067,13.83341 75.33378,14.06905 C75.31818,13.70734 75.29769,13.34576 75.28801,12.98388 C75.25976,11.92759 75.21822,10.87115 75.21976,9.81483 C75.247887,9.44462249 75.3057164,9.07727367 75.39269,8.71633 L75.60821,8.74918 C75.630106,8.85043627 75.6434365,8.95335656 75.64806,9.05685 C75.61236,10.06985 75.56322,11.08242 75.54227,12.09563 C75.5854331,12.2311255 75.6602909,12.3543721 75.76063,12.45514 L75.76063,12.45514 Z" id="Path"></path>
                <path d="M51.25,27.35762 C51.3232183,27.352658 51.3967455,27.3602783 51.46739,27.38015 C52.45311,27.98386 53.41948,28.62176 54.42739,29.18556 C54.8757968,29.3986166 55.3490849,29.5547679 55.83624,29.65038 C56.06805,29.71096 56.32995,29.65349 56.56424,29.70874 C56.663849,29.7922746 56.7394007,29.9008421 56.78312,30.02327 C56.6883786,30.103067 56.575704,30.158706 56.45475,30.1854289 C55.46984,30.1873897 54.5123674,29.8610363 53.73369,29.25795 C53.4053151,29.0566647 53.0616501,28.8814601 52.70586,28.73395 C52.20201,28.40104 51.72979,28.01938 51.25605,27.64338 C51.2299306,27.5501665 51.2278492,27.4518555 51.25,27.35762 L51.25,27.35762 Z" id="Path"></path>
                <path d="M49.15765,28.28132 C49.3006406,27.7357462 49.4049695,27.1807656 49.46986,26.62051 C49.50598,25.93583 49.40786,25.24498 49.39911,24.5564 C49.4260628,24.3598222 49.4817297,24.1682664 49.56433,23.98786 C49.6562822,24.1413813 49.7323805,24.3038575 49.79145,24.47278 C50.0208562,25.6557214 49.9701708,26.875939 49.64345,28.03578 C49.5476165,28.1892386 49.4162184,28.3173472 49.26038,28.40926 L49.15765,28.28132 Z" id="Path"></path>
                <path d="M69.11858,30.696 C68.94899,30.56156 68.79458,30.43308 68.63396,30.313 C68.4222333,30.1909761 68.3020222,29.9558881 68.3270509,29.7128005 C68.3520797,29.4697129 68.5176713,29.2640516 68.74982,29.18773 C69.869997,28.804819 70.9142882,28.2283022 71.83518,27.48441 C71.9784441,27.4208013 72.1371871,27.400494 72.29185,27.42599 C72.4250396,27.7344553 72.4610495,28.0761884 72.39508,28.40564 C72.0399577,28.7605037 71.6355314,29.062318 71.19428,29.30177 C70.508,29.76924 69.816,30.22822 69.11858,30.696 Z" id="Path"></path>
            </g>
        </g>
    </g>
</svg>