<?xml version="1.0" encoding="UTF-8"?>
<svg viewBox="0 0 84 66" version="1.1" 
    xmlns="http://www.w3.org/2000/svg" 
    xmlns:xlink="http://www.w3.org/1999/xlink">
    <g stroke="none" stroke-width="2" fill="none" fill-rule="evenodd">
        <g id="noun_invite_2025576" transform="translate(1.000000, 0.000000)" fill="currentcolor" fill-rule="nonzero" stroke="currentcolor">
            <g id="Group">
                <path d="M81.724,23.868 C81.719,23.843 81.73,23.817 81.721,23.792 C81.715,23.775 81.698,23.767 81.69,23.75 C81.666,23.698 81.631,23.659 81.59,23.618 C81.56,23.588 81.536,23.559 81.5,23.538 C81.486,23.53 81.479,23.514 81.465,23.507 C81.424,23.487 81.379,23.494 81.336,23.486 C81.306,23.48 81.281,23.459 81.25,23.459 L72.625,23.459 L72.625,1.403 C72.625,1.127 72.401,0.903 72.125,0.903 L9.875,0.903 C9.599,0.903 9.375,1.127 9.375,1.403 L9.375,23.46 L0.75,23.46 C0.719,23.46 0.695,23.481 0.665,23.487 C0.622,23.494 0.577,23.488 0.536,23.508 C0.521,23.515 0.515,23.531 0.501,23.539 C0.465,23.56 0.44,23.589 0.411,23.619 C0.37,23.66 0.336,23.699 0.311,23.751 C0.303,23.767 0.286,23.775 0.279,23.793 C0.27,23.818 0.281,23.844 0.277,23.87 C0.27,23.9 0.25,23.927 0.25,23.96 L0.25,64.597 C0.25,64.873 0.474,65.097 0.75,65.097 L81.25,65.097 C81.526,65.097 81.75,64.873 81.75,64.597 L81.75,23.96 C81.75,23.927 81.729,23.9 81.724,23.868 Z M72.625,24.46 L79.841,24.46 L72.625,30.321 L72.625,24.46 Z M10.375,23.96 L10.375,1.903 L71.625,1.903 L71.625,23.96 L71.625,31.134 L45.609,52.266 L41,56.009 L36.391,52.266 L10.375,31.134 L10.375,23.96 Z M9.375,24.46 L9.375,30.321 L2.159,24.46 L9.375,24.46 Z M80.75,64.097 L1.25,64.097 L1.25,25.011 L9.56,31.761 L35.76,53.042 L40.685,57.042 C40.777,57.117 40.889,57.154 41,57.154 C41.111,57.154 41.224,57.117 41.315,57.042 L46.24,53.042 L72.44,31.761 L80.75,25.011 L80.75,64.097 Z" id="Shape"></path>
                <path d="M50.232,36.494 C50.305,36.533 50.384,36.552 50.464,36.552 C50.568,36.552 50.671,36.52 50.758,36.456 C50.912,36.344 50.989,36.154 50.957,35.967 L49.193,25.688 L56.661,18.408 C56.798,18.275 56.847,18.076 56.788,17.896 C56.729,17.715 56.572,17.583 56.385,17.556 L46.063,16.056 L41.448,6.703 C41.28,6.361 40.719,6.361 40.552,6.703 L35.937,16.056 L25.615,17.556 C25.427,17.583 25.27,17.715 25.211,17.896 C25.152,18.077 25.201,18.275 25.337,18.408 L32.806,25.688 L31.043,35.967 C31.011,36.155 31.088,36.344 31.242,36.456 C31.397,36.568 31.601,36.583 31.769,36.494 L41,31.641 L50.232,36.494 Z M32.2,35.138 L33.836,25.598 C33.864,25.436 33.81,25.27 33.692,25.156 L26.76,18.4 L36.339,17.008 C36.502,16.985 36.643,16.882 36.715,16.735 L41,8.054 L45.283,16.734 C45.355,16.881 45.497,16.984 45.659,17.007 L55.239,18.399 L48.308,25.155 C48.19,25.27 48.136,25.435 48.163,25.597 L49.8,35.137 L41.232,30.633 C41.16,30.595 41.08,30.576 41,30.576 C40.92,30.576 40.84,30.595 40.767,30.634 L32.2,35.138 Z" id="Shape"></path>
            </g>
        </g>
    </g>
</svg>