<?xml version="1.0" encoding="UTF-8"?>
<svg width="217px" height="117px" viewBox="0 0 217 117" version="1.1" 
    xmlns="http://www.w3.org/2000/svg" 
    xmlns:xlink="http://www.w3.org/1999/xlink">
    <defs>
        <path d="M122.5,63 L221.5,63.5" id="path-1"></path>
        <filter x="-2.8%" y="-250.9%" width="105.6%" height="601.8%" filterUnits="objectBoundingBox" id="filter-2">
            <feMorphology radius="1.75" operator="dilate" in="SourceAlpha" result="shadowSpreadOuter1"></feMorphology>
            <feOffset dx="0" dy="0" in="shadowSpreadOuter1" result="shadowOffsetOuter1"></feOffset>
            <feMorphology radius="2" operator="erode" in="SourceAlpha" result="shadowInner"></feMorphology>
            <feOffset dx="0" dy="0" in="shadowInner" result="shadowInner"></feOffset>
            <feComposite in="shadowOffsetOuter1" in2="shadowInner" operator="out" result="shadowOffsetOuter1"></feComposite>
            <feColorMatrix values="0 0 0 0 0   0 0 0 0 0   0 0 0 0 0  0 0 0 0.5 0" type="matrix" in="shadowOffsetOuter1"></feColorMatrix>
        </filter>
        <ellipse id="path-3" cx="129" cy="121.5" rx="79" ry="4.5"></ellipse>
        <filter x="-5.7%" y="-100.0%" width="111.4%" height="300.0%" filterUnits="objectBoundingBox" id="filter-4">
            <feOffset dx="0" dy="0" in="SourceAlpha" result="shadowOffsetOuter1"></feOffset>
            <feGaussianBlur stdDeviation="3" in="shadowOffsetOuter1" result="shadowBlurOuter1"></feGaussianBlur>
            <feColorMatrix values="0 0 0 0 0.375622736   0 0 0 0 0.375422327   0 0 0 0 0.375422327  0 0 0 0.234538899 0" type="matrix" in="shadowBlurOuter1"></feColorMatrix>
        </filter>
    </defs>
    <g id="Page-2" stroke="none" stroke-width="1" fill="none" fill-rule="evenodd">
        <g id="11" transform="translate(-83.000000, -336.000000)">
            <g id="Group-2-Copy" transform="translate(76.000000, 321.000000)">
                <g id="noun_broom_1285274" transform="translate(62.500000, 62.500000) rotate(-225.000000) translate(-62.500000, -62.500000) translate(19.000000, 19.000000)" fill="#000000">
                    <g id="Group" transform="translate(0.712888, 0.114262)">
                        <path d="M51.2276329,71.0442647 L59.0309556,61.6966292 L2.1903593,3.84832702 C1.32824127,2.97265979 -0.348188865,1.53241765 0.525424073,0.656750419 C1.3875421,-0.218916806 3.45279258,1.4807077 4.31491061,2.35637493 L60.6325707,60.2831461 L71.5769403,50.6482264 C72.4505533,49.7725591 73.3571553,48.6456188 74.2307683,49.521286 L78.2884705,53.5770079 L53.6203999,78.314607 L49.5626977,74.2473632 C48.6890847,73.371696 48.6890847,73.0281902 49.5626977,72.1640449 L51.2276329,71.0442647 Z" id="Path"></path>
                        <polygon id="Rectangle" transform="translate(57.434573, 81.485704) rotate(-45.000000) translate(-57.434573, -81.485704) " points="57.0063634 76.9578446 57.871366 76.9570248 57.8627827 86.013564 56.9977802 86.0143838"></polygon>
                        <path d="M61.1288088,84.1977528 C61.3243533,83.9903334 61.5429032,83.782914 61.7384477,83.5870179 C59.6104627,81.4436839 57.470975,79.30035 55.3429899,77.1685393 C55.1359428,77.3759587 54.9288956,77.5833782 54.7218484,77.7907976 C56.861336,79.9226082 58.9893211,82.0544189 61.1288088,84.1977528 Z" id="Path"></path>
                        <path d="M61.9181137,83.3955056 C62.1366635,83.1877456 62.3322081,82.9915278 62.5392553,82.7837678 C60.3997676,80.6369144 58.2717825,78.5016033 56.1322949,76.3662921 C55.9367503,76.5625099 55.7297031,76.7702699 55.5226559,76.9780299 C57.650641,79.1133411 59.7901286,81.2601945 61.9181137,83.3955056 Z" id="Path"></path>
                        <path d="M62.7409443,82.5932584 C62.93681,82.3854984 63.1441971,82.1892806 63.3400628,81.9815206 C61.2085835,79.8462095 59.0655827,77.6993561 56.9341034,75.5640449 C56.7267163,75.7602627 56.5308506,75.9680227 56.3234634,76.1757827 C58.4549427,78.3110939 60.5979435,80.446405 62.7409443,82.5932584 Z" id="Path"></path>
                        <path d="M63.5302303,81.7910112 C63.7376175,81.5947935 63.9334832,81.3870334 64.1408703,81.1908157 C61.9978696,79.0439623 59.8663903,76.9086511 57.734911,74.7617978 C57.5275238,74.9695578 57.3201366,75.1657755 57.124271,75.3735355 C59.2557503,77.5088467 61.3987511,79.6557001 63.5302303,81.7910112 Z" id="Path"></path>
                        <path d="M64.3310379,80.988764 C64.538425,80.781004 64.7342907,80.5847863 64.9416779,80.3770263 C62.7986771,78.2301729 60.6671978,76.0948617 58.524197,73.9595506 C58.3283313,74.1557683 58.1209442,74.3635283 57.9250785,74.5597461 C60.0565578,76.7065995 62.1880371,78.8419107 64.3310379,80.988764 Z" id="Path"></path>
                        <path d="M65.1328465,80.1865169 C65.328391,79.9906207 65.5354382,79.7832013 65.7424854,79.5757819 C63.6029977,77.432448 61.4750127,75.3006373 59.3470276,73.1573034 C59.1284778,73.3762461 58.9329332,73.5721422 58.725886,73.7795616 C60.8538711,75.9113723 62.9933588,78.0547062 65.1328465,80.1865169 Z" id="Path"></path>
                        <path d="M65.9221514,79.3842697 C66.1291986,79.1880519 66.3362458,78.9802919 66.543293,78.7725319 C64.4038053,76.6256785 62.2643176,74.4903673 60.1363325,72.3550562 C59.940788,72.551274 59.7222382,72.7705762 59.5266936,72.966794 C61.6546786,75.1021051 63.7941663,77.2489585 65.9221514,79.3842697 Z" id="Path"></path>
                        <path d="M66.7344615,78.5820225 C66.9415087,78.3746031 67.1485559,78.1671836 67.3441005,77.9597642 C65.2161154,75.8279536 63.0766278,73.6846196 60.9486427,71.552809 C60.7415955,71.7602284 60.5460509,71.9561245 60.3275011,72.1635439 C62.4669888,74.3068779 64.5949739,76.4386885 66.7344615,78.5820225 Z" id="Path"></path>
                        <path d="M67.5352691,77.7797753 C67.7423163,77.5723559 67.9378608,77.3649365 68.144908,77.1690403 C66.0054204,75.0257064 63.8774353,72.8938957 61.7494502,70.7505618 C61.542403,70.9579812 61.3353559,71.1654006 61.1283087,71.37282 C63.2562937,73.5046307 65.3957814,75.6479646 67.5352691,77.7797753 Z" id="Path"></path>
                        <path d="M68.3360766,76.9775281 C68.5316212,76.7697681 68.7386684,76.5735503 68.9457156,76.3657903 C66.8062279,74.2304791 64.6667402,72.0836258 62.5387552,69.9483146 C62.3432106,70.1445324 62.1361634,70.3522924 61.9291162,70.5485102 C64.0686039,72.6953636 66.1965889,74.8306747 68.3360766,76.9775281 Z" id="Path"></path>
                        <path d="M69.1358831,76.1752809 C69.3432703,75.9790631 69.5506574,75.7713031 69.7465231,75.5750853 C67.6150438,73.428232 65.472043,71.2813786 63.3405637,69.1460674 C63.1331766,69.3538274 62.9373109,69.5500452 62.7299237,69.7578052 C64.861403,71.8931164 67.0044038,74.0399697 69.1358831,76.1752809 Z" id="Path"></path>
                        <path d="M69.9748243,75.3730337 C70.1822115,75.1656143 70.3780772,74.9581949 70.5854643,74.7622988 C68.4424635,72.6189648 66.3109843,70.4871542 64.1679835,68.3438202 C63.9721178,68.5512396 63.7647306,68.7586591 63.568865,68.9545552 C65.7003442,71.0863658 67.843345,73.2296998 69.9748243,75.3730337 Z" id="Path"></path>
                        <path d="M70.7384992,74.5707865 C70.9340438,74.3633671 71.141091,74.167471 71.3481382,73.9600516 C69.2201531,71.8167176 67.0806654,69.6733837 64.9526804,67.541573 C64.7456332,67.7489924 64.538586,67.9564119 64.3315388,68.1638313 C66.4710265,70.2956419 68.5990115,72.4274526 70.7384992,74.5707865 Z" id="Path"></path>
                        <path d="M71.5659378,73.7303371 C71.772985,73.534441 71.9800322,73.3154983 72.1870794,73.1196021 C70.0475917,70.9762682 67.9196067,68.8444575 65.780119,66.7011236 C65.5845744,66.908543 65.3775272,67.1159624 65.17048,67.3233818 C67.2984651,69.4551925 69.4379528,71.5985264 71.5659378,73.7303371 Z" id="Path"></path>
                        <path d="M72.3772469,72.9662921 C72.5846341,72.7473494 72.7920213,72.5514533 72.9878869,72.3440339 C70.8564077,70.2122232 68.7134069,68.0688893 66.5819276,65.9370787 C66.3745404,66.1329748 66.1786747,66.3403942 65.9712876,66.5478136 C68.1027669,68.6911475 70.2342461,70.8229582 72.3772469,72.9662921 Z" id="Path"></path>
                        <path d="M73.1409218,72.1640449 C73.347969,71.9566255 73.5550162,71.7492061 73.7505608,71.55331 C71.6225757,69.4099761 69.4830881,67.2666421 67.355103,65.1348315 C67.1480558,65.3422509 66.9525112,65.538147 66.7339614,65.7570897 C68.8734491,67.8889003 71.0014342,70.020711 73.1409218,72.1640449 Z" id="Path"></path>
                        <path d="M73.978862,71.3617978 C74.1862492,71.1540377 74.3821148,70.95782 74.589502,70.75006 C72.4465012,68.6032066 70.3150219,66.4678954 68.1720211,64.3325843 C67.9761555,64.5288021 67.7687683,64.7365621 67.5729026,64.9327798 C69.7043819,67.0796332 71.8358612,69.2149444 73.978862,71.3617978 Z" id="Path"></path>
                        <path d="M74.7911911,70.5213483 C74.9870567,70.3135883 75.1944439,70.1173705 75.3903096,69.9096105 C73.2588303,67.7742994 71.1158295,65.627446 68.9843502,63.4921348 C68.776963,63.6998948 68.5810974,63.8961126 68.3737102,64.1038726 C70.5051895,66.2391838 72.6481903,68.3744949 74.7911911,70.5213483 Z" id="Path"></path>
                        <path d="M75.5699755,69.7191011 C75.7770227,69.5228833 75.9725673,69.3151233 76.1911171,69.1073633 C74.0516294,66.96051 71.9236444,64.8251988 69.7841567,62.6898876 C69.5771095,62.8976476 69.3700623,63.0938654 69.1745177,63.3016254 C71.3025028,65.4369366 73.4419905,67.58379 75.5699755,69.7191011 Z" id="Path"></path>
                        <path d="M76.3812846,68.9168539 C76.5886718,68.7094345 76.7845375,68.5135384 76.9919246,68.2945957 C74.8604453,66.162785 72.7174446,64.0194511 70.5859653,61.8876404 C70.3785781,62.0950599 70.1711909,62.3024793 69.9753253,62.4983754 C72.1068045,64.6417093 74.2382838,66.77352 76.3812846,68.9168539 Z" id="Path"></path>
                        <path d="M77.1830932,68.1146067 C77.3786378,67.9187106 77.585685,67.6997679 77.7927322,67.5038718 C75.6532445,65.3605379 73.5252594,63.2287272 71.3972744,61.0853933 C71.1902272,61.2928127 70.98318,61.5002321 70.7761328,61.7076515 C72.9041179,63.8394621 75.0436055,65.9827961 77.1830932,68.1146067 Z" id="Path"></path>
                        <path d="M77.9723981,67.3123596 C78.1794453,67.1045995 78.3864925,66.9083818 78.5935397,66.7006218 C76.454052,64.5653106 74.3145643,62.4184572 72.1865793,60.2831461 C71.9910347,60.4793638 71.7839875,60.6871239 71.5769403,60.8948839 C73.7049254,63.030195 75.8444131,65.1770484 77.9723981,67.3123596 Z" id="Path"></path>
                        <path d="M78.7847083,66.5101124 C78.9917555,66.3026929 79.1988027,66.0952735 79.3943472,65.8878541 C77.2663622,63.7560435 75.1268745,61.6127095 72.9988895,59.4808989 C72.7918423,59.6883183 72.5962977,59.8842144 72.3777479,60.0916338 C74.5172355,62.2349678 76.6452206,64.3667784 78.7847083,66.5101124 Z" id="Path"></path>
                        <path d="M79.5845148,65.7078652 C79.7919019,65.5004458 79.9877676,65.2930263 80.1951548,65.0971302 C78.052154,62.9537963 75.9206747,60.8219856 73.7891954,58.6786517 C73.5818082,58.8860711 73.3744211,59.0934905 73.1785554,59.2893866 C75.3100347,61.4211973 77.4530355,63.5645312 79.5845148,65.7078652 Z" id="Path"></path>
                        <path d="M80.3863234,64.905618 C80.5818679,64.697858 80.7889151,64.5016402 80.9959623,64.2938802 C78.8564746,62.158569 76.716987,60.0117157 74.5890019,57.8764045 C74.3934573,58.0726223 74.1864101,58.2803823 73.9793629,58.4766001 C76.1188506,60.6234534 78.2468357,62.7587646 80.3863234,64.905618 Z" id="Path"></path>
                        <path d="M81.1756283,64.1033708 C81.3826755,63.9074747 81.5897227,63.7000553 81.7967699,63.4926358 C79.6572822,61.3493019 77.5292971,59.2174913 75.3898094,57.0741573 C75.1827622,57.2931 74.9872177,57.4889961 74.7801705,57.6964155 C76.9081555,59.8282262 79.0476432,61.9715601 81.1756283,64.1033708 Z" id="Path"></path>
                        <path d="M81.9764358,63.3011236 C82.183483,63.0937042 82.3790276,62.8862848 82.5975774,62.6788654 C80.4580897,60.5470547 78.318602,58.4037208 76.190617,56.2719101 C75.9835698,56.4793295 75.7765226,56.6867489 75.580978,56.8826451 C77.7089631,59.0144557 79.8484507,61.1577896 81.9764358,63.3011236 Z" id="Path"></path>
                        <path d="M82.788746,62.4988764 C82.9842905,62.291457 83.2028404,62.0840376 83.3983849,61.8881415 C81.2703999,59.7448075 79.1309122,57.6014736 77.0029271,55.4696629 C76.7958799,55.6770823 76.5888327,55.8845017 76.3817856,56.0919212 C78.5212732,58.2237318 80.6492583,60.3555425 82.788746,62.4988764 Z" id="Path"></path>
                        <path d="M83.5780509,61.6966292 C83.7966007,61.4888692 83.9921453,61.2811092 84.1991925,61.0848914 C82.0597048,58.938038 79.9317197,56.8027269 77.7922321,54.6674157 C77.5966875,54.8636335 77.3896403,55.0713935 77.1825931,55.2791535 C79.3105781,57.4144647 81.4500658,59.5613181 83.5780509,61.6966292 Z" id="Path"></path>
                        <polygon id="Rectangle" transform="translate(81.486825, 57.387818) rotate(-45.000000) translate(-81.486825, -57.387818) " points="81.0586155 52.8599587 81.9236181 52.8591389 81.9150348 61.9156781 81.0500323 61.9164979"></polygon>
                    </g>
                </g>
                <text id="Jump-Copy" stroke="#FFFFFF" stroke-width="3" font-family="GreatVibes-Regular, Great Vibes" font-size="48" font-weight="normal" fill="#570000">
                    <tspan x="11" y="56">Jump</tspan>
                </text>
                <text id="Jump" font-family="GreatVibes-Regular, Great Vibes" font-size="48" font-weight="normal" fill="#003357">
                    <tspan x="11" y="56">Jump</tspan>
                </text>
                <text id="the" font-family="GreatVibes-Regular, Great Vibes" font-size="24" font-weight="normal" fill="#003357">
                    <tspan x="53" y="82">the</tspan>
                </text>
                <text id="BROOM" font-family="Montserrat-Black, Montserrat" font-size="36" font-weight="700" fill="#003357">
                    <tspan x="75" y="98">BR</tspan>
                    <tspan x="129.648" y="98" fill-opacity="0.00114729021">OO</tspan>
                    <tspan x="190.704" y="98">M</tspan>
                </text>
                <g id="noun_wedding-rings_1857256" transform="translate(159.500000, 88.000000) scale(-1, 1) translate(-159.500000, -88.000000) translate(131.000000, 66.000000)" fill="#000000" fill-rule="nonzero">
                    <g id="Group" transform="translate(0.000000, 2.000000)">
                        <path d="M3.51047817,22.1676 L4.95974672,22.5306806 C5.08668996,22.0170269 5.24910262,21.5066328 5.44287773,21.0135403 L4.05421834,20.4597672 C3.83605022,21.0146687 3.65322707,21.5892537 3.51047817,22.1676 Z" id="Path"></path>
                        <path d="M44.5854498,0.93678806 C40.7307314,-0.291492537 36.5393646,-0.149444776 32.7833384,1.33710448 C29.0821965,2.80208955 25.9475699,5.50413134 23.9569258,8.94587463 L25.2473908,9.70325373 C29.025321,3.17106269 36.9689803,0.0873850746 44.1350502,2.37118209 C52.6559279,5.08638806 57.3953908,14.2788716 54.7000873,22.8626687 C52.0046594,31.4463403 42.8799301,36.2210507 34.3588035,33.5057194 C27.0903079,31.1894507 22.3609258,23.9707164 23.1135,16.3408836 L21.627393,16.1920657 C21.2318777,20.2014985 22.2227817,24.2797612 24.4172817,27.6757433 C25.1688603,28.8385791 26.0513646,29.9024955 27.0402773,30.8500657 C25.5925022,33.6956597 23.0616026,35.8538328 20.0215611,36.811809 C16.9963297,37.7651463 13.784417,37.4747821 10.976607,35.9943761 C8.16854803,34.5137194 6.10111572,32.0199224 5.15489083,28.9723522 C4.64350873,27.3254507 4.49067904,25.6297791 4.70100655,23.9324776 L3.21900655,23.7462985 C2.98229476,25.6584896 3.15404148,27.5679224 3.72964192,29.4216896 C4.79509389,32.8527761 7.12288428,35.6605075 10.2842686,37.3273433 C12.223762,38.3500119 14.3345044,38.8683045 16.4629192,38.8683045 C17.8035393,38.8683045 19.1515022,38.6625672 20.4676048,38.2478328 C23.7718624,37.206609 26.5419629,34.9061373 28.1962074,31.8657134 C28.6049148,32.1946925 29.0279345,32.5057433 29.4640218,32.7973612 C27.596214,36.1371761 24.5903974,38.5921075 20.9331878,39.7449134 C17.1311135,40.9432299 13.0928253,40.5781433 9.56280786,38.7169791 C6.03279039,36.8558149 3.4335655,33.7212358 2.2439083,29.8908358 C0.149967249,23.1453851 3.06493231,15.7473672 9.17513319,12.2999821 L8.44545852,10.9873254 C5.21077074,12.8123821 2.65983406,15.7353313 1.26246288,19.2179463 C-0.15419869,22.7487045 -0.311882096,26.6987104 0.818534934,30.3400478 C3.0120393,37.4029433 9.50306987,41.9370627 16.4894279,41.9364358 C18.1082031,41.9364358 19.7547314,41.6928358 21.3792314,41.1808119 C25.3885218,39.9170507 28.6865568,37.230806 30.7430371,33.5761791 C31.7468843,34.1307045 32.8067358,34.589194 33.9087773,34.9403642 C35.6786397,35.5042925 37.4714017,35.7724657 39.2361616,35.7723403 C46.7505786,35.7719642 53.7406703,30.9084896 56.1244651,23.3166448 C59.0676812,13.9417433 53.8913843,3.90223881 44.5854498,0.93678806 Z" id="Path"></path>
                        <path d="M28.4305546,27.516394 C29.2545655,28.4630866 30.1956878,29.2950627 31.2262926,29.9881254 C32.3590742,30.7536537 33.5967707,31.3528119 34.9046594,31.7684239 C36.3367533,32.2249075 37.8035699,32.4510806 39.2637904,32.4510806 C41.5422969,32.4510806 43.8036288,31.8996896 45.8837555,30.8112 C49.2970349,29.0252597 51.815738,26.007403 52.9758996,22.3132836 C54.1360611,18.6194149 53.7985415,14.6912239 52.0255677,11.2524896 C50.2527183,7.81362985 47.2568581,5.2765791 43.5900655,4.10847761 C40.0286856,2.97347463 36.2235,3.26534328 32.8746878,4.93029851 C29.8399978,6.43928955 27.4651638,8.93208358 26.1011463,12.0137552 C22.9243297,9.69385075 19.0725983,8.60097313 15.148559,8.92543881 L15.2710218,10.4249015 C19.1411725,10.1040716 22.9337882,11.3008836 25.9505568,13.7945552 C28.1950873,15.6480716 29.8423624,18.1111522 30.7144127,20.9173791 C31.2662424,22.6939164 31.4862773,24.5274985 31.3686681,26.3667224 L32.8590066,26.4633851 C32.9885633,24.4391104 32.7466245,22.4218567 32.139786,20.4680418 C31.2351288,17.5566269 29.5708035,14.9814627 27.3124585,12.9867761 C29.8513231,6.75008955 36.6987904,3.48988657 43.1397904,5.54274627 C46.4261266,6.58973731 49.1112249,8.86362985 50.7003799,11.9456776 C52.2894105,15.0278507 52.5918341,18.5484537 51.5520197,21.8593075 C50.5122052,25.1701612 48.2547314,27.8750866 45.195524,29.4758507 C42.1358188,31.0767403 38.6411463,31.3812716 35.3545611,30.3335284 C34.1818297,29.960794 33.0729432,29.4243224 32.057024,28.7376537 C31.2230568,28.1767343 30.4559214,27.5138866 29.7711747,26.7662866 C29.8865437,25.6302806 29.8582926,24.4838687 29.6836834,23.3525015 C29.5815066,22.6907821 29.4283035,22.0291881 29.2288035,21.3861493 C28.6151201,19.4100179 27.5927293,17.6516597 26.1903799,16.1597194 C24.4959367,14.3556 22.3400175,13.0584896 19.9559738,12.4086806 C17.5057205,11.7406925 14.9241681,11.7930985 12.4909651,12.5601313 C9.03026856,13.6507522 6.21860044,16.0445015 4.57344105,19.3003164 L5.90422926,19.9827224 C7.36556987,17.0908657 9.86311572,14.9646627 12.9367598,13.9959045 C17.195083,12.6540358 21.7380328,13.7904179 24.8766419,16.9583463 C24.6186485,20.7859881 25.903762,24.6158866 28.4305546,27.516394 Z M28.2079061,23.5840657 C28.2742402,24.0138448 28.3163057,24.4461313 28.3354716,24.8791701 C27.189,23.0447104 26.5097293,20.9439582 26.3663581,18.787791 C26.9822817,19.7213194 27.4632969,20.740603 27.8033057,21.8354866 C27.9809017,22.4075642 28.1170546,22.9958149 28.2079061,23.5840657 Z" id="Shape"></path>
                    </g>
                    <g id="Group" transform="translate(2.000000, 0.000000)">
                        <path d="M2.29438406,3.1636699 L0.0837681159,8.52635922 L10.6571522,12.9074854 L16.9081014,3.13350485 L12.1086812,0.0177961165 L2.29438406,3.1636699 Z M14.1358696,3.12668932 L11.4800507,3.978 L10.0455217,2.26603883 L11.896058,1.67283495 L14.1358696,3.12668932 Z M5.46562319,7.49279612 L7.6977971,10.0476117 L3.24773913,8.20375728 L5.46562319,7.49279612 Z M10.3608841,5.92358252 L9.83856522,10.226835 L7.01557971,6.9958932 L10.3608841,5.92358252 Z M6.54968116,5.5584466 L6.77610145,3.3141165 L8.50973188,2.75839806 L9.94426087,4.47035922 L6.54968116,5.5584466 Z M11.9109638,5.42680583 L14.1287246,4.71597087 L11.497913,8.82927184 L11.9109638,5.42680583 Z M5.24031159,3.80634951 L5.0138913,6.05067961 L2.35794928,6.90199029 L3.38952899,4.3995534 L5.24031159,3.80634951 Z" id="Shape"></path>
                    </g>
                </g>
                <g id="Line" stroke-linecap="square">
                    <use fill="black" fill-opacity="1" filter="url(#filter-2)" xlink:href="#path-1"></use>
                    <use stroke="#000000" stroke-width="1.5" xlink:href="#path-1"></use>
                </g>
                <g id="Oval" fill="black" fill-opacity="1">
                    <use filter="url(#filter-4)" xlink:href="#path-3"></use>
                </g>
            </g>
        </g>
    </g>
</svg>