<?xml version="1.0" encoding="UTF-8"?>
<svg width="217px" height="117px" viewBox="0 0 217 117" version="1.1" xmlns="http://www.w3.org/2000/svg" xmlns:xlink="http://www.w3.org/1999/xlink">
    <!-- Generator: Sketch 60.1 (88133) - https://sketch.com -->
    <title>main</title>
    <desc>Created with Sketch.</desc>
    <defs>
        <ellipse id="path-1" cx="129" cy="171.5" rx="79" ry="4.5"></ellipse>
        <filter x="-5.7%" y="-100.0%" width="111.4%" height="300.0%" filterUnits="objectBoundingBox" id="filter-2">
            <feOffset dx="0" dy="0" in="SourceAlpha" result="shadowOffsetOuter1"></feOffset>
            <feGaussianBlur stdDeviation="3" in="shadowOffsetOuter1" result="shadowBlurOuter1"></feGaussianBlur>
            <feColorMatrix values="0 0 0 0 0.375622736   0 0 0 0 0.375422327   0 0 0 0 0.375422327  0 0 0 0.234538899 0" type="matrix" in="shadowBlurOuter1"></feColorMatrix>
        </filter>
    </defs>
    <g id="Page-2" stroke="none" stroke-width="1" fill="none" fill-rule="evenodd">
        <g id="11" transform="translate(-82.000000, -336.000000)">
            <g id="main" transform="translate(76.000000, 271.000000)">
                <g id="noun_broom_1285274-copy" transform="translate(112.704581, 112.500000) rotate(-225.000000) translate(-112.704581, -112.500000) translate(33.704581, 33.500000)" fill="#000000">
                    <g id="Group" transform="translate(0.712888, 0.114262)">
                        <path d="M122.227633,142.044265 L130.030956,132.696629 L1.71068707,3.01642044 C1.17920039,2.47658082 0.836629659,2.26330131 0.856731654,1.97394018 C0.869236858,1.79393217 1.02209392,1.58448109 1.35713368,1.24865349 C2.21925171,0.372986259 2.06424046,0.541546704 3.47845403,1.24865349 L131.632571,131.283146 L142.57694,121.648226 C143.450553,120.772559 144.357155,119.645619 145.230768,120.521286 L149.28847,124.577008 L124.6204,149.314607 L120.562698,145.247363 C119.689085,144.371696 119.689085,144.02819 120.562698,143.164045 L122.227633,142.044265 Z" id="Path"></path>
                        <polygon id="Rectangle" transform="translate(128.434573, 152.485704) rotate(-45.000000) translate(-128.434573, -152.485704) " points="128.006363 147.957845 128.871366 147.957025 128.862783 157.013564 127.99778 157.014384"></polygon>
                        <path d="M132.128809,155.197753 C132.324353,154.990333 132.542903,154.782914 132.738448,154.587018 C130.610463,152.443684 128.470975,150.30035 126.34299,148.168539 C126.135943,148.375959 125.928896,148.583378 125.721848,148.790798 C127.861336,150.922608 129.989321,153.054419 132.128809,155.197753 Z" id="Path"></path>
                        <path d="M132.918114,154.395506 C133.136664,154.187746 133.332208,153.991528 133.539255,153.783768 C131.399768,151.636914 129.271783,149.501603 127.132295,147.366292 C126.93675,147.56251 126.729703,147.77027 126.522656,147.97803 C128.650641,150.113341 130.790129,152.260194 132.918114,154.395506 Z" id="Path"></path>
                        <path d="M133.740944,153.593258 C133.93681,153.385498 134.144197,153.189281 134.340063,152.981521 C132.208584,150.846209 130.065583,148.699356 127.934103,146.564045 C127.726716,146.760263 127.530851,146.968023 127.323463,147.175783 C129.454943,149.311094 131.597944,151.446405 133.740944,153.593258 Z" id="Path"></path>
                        <path d="M134.53023,152.791011 C134.737618,152.594793 134.933483,152.387033 135.14087,152.190816 C132.99787,150.043962 130.86639,147.908651 128.734911,145.761798 C128.527524,145.969558 128.320137,146.165776 128.124271,146.373536 C130.25575,148.508847 132.398751,150.6557 134.53023,152.791011 Z" id="Path"></path>
                        <path d="M135.331038,151.988764 C135.538425,151.781004 135.734291,151.584786 135.941678,151.377026 C133.798677,149.230173 131.667198,147.094862 129.524197,144.959551 C129.328331,145.155768 129.120944,145.363528 128.925079,145.559746 C131.056558,147.7066 133.188037,149.841911 135.331038,151.988764 Z" id="Path"></path>
                        <path d="M136.132846,151.186517 C136.328391,150.990621 136.535438,150.783201 136.742485,150.575782 C134.602998,148.432448 132.475013,146.300637 130.347028,144.157303 C130.128478,144.376246 129.932933,144.572142 129.725886,144.779562 C131.853871,146.911372 133.993359,149.054706 136.132846,151.186517 Z" id="Path"></path>
                        <path d="M136.922151,150.38427 C137.129199,150.188052 137.336246,149.980292 137.543293,149.772532 C135.403805,147.625678 133.264318,145.490367 131.136333,143.355056 C130.940788,143.551274 130.722238,143.770576 130.526694,143.966794 C132.654679,146.102105 134.794166,148.248959 136.922151,150.38427 Z" id="Path"></path>
                        <path d="M137.734462,149.582022 C137.941509,149.374603 138.148556,149.167184 138.3441,148.959764 C136.216115,146.827954 134.076628,144.68462 131.948643,142.552809 C131.741596,142.760228 131.546051,142.956125 131.327501,143.163544 C133.466989,145.306878 135.594974,147.438689 137.734462,149.582022 Z" id="Path"></path>
                        <path d="M138.535269,148.779775 C138.742316,148.572356 138.937861,148.364936 139.144908,148.16904 C137.00542,146.025706 134.877435,143.893896 132.74945,141.750562 C132.542403,141.957981 132.335356,142.165401 132.128309,142.37282 C134.256294,144.504631 136.395781,146.647965 138.535269,148.779775 Z" id="Path"></path>
                        <path d="M139.336077,147.977528 C139.531621,147.769768 139.738668,147.57355 139.945716,147.36579 C137.806228,145.230479 135.66674,143.083626 133.538755,140.948315 C133.343211,141.144532 133.136163,141.352292 132.929116,141.54851 C135.068604,143.695364 137.196589,145.830675 139.336077,147.977528 Z" id="Path"></path>
                        <path d="M140.135883,147.175281 C140.34327,146.979063 140.550657,146.771303 140.746523,146.575085 C138.615044,144.428232 136.472043,142.281379 134.340564,140.146067 C134.133177,140.353827 133.937311,140.550045 133.729924,140.757805 C135.861403,142.893116 138.004404,145.03997 140.135883,147.175281 Z" id="Path"></path>
                        <path d="M140.974824,146.373034 C141.182211,146.165614 141.378077,145.958195 141.585464,145.762299 C139.442464,143.618965 137.310984,141.487154 135.167983,139.34382 C134.972118,139.55124 134.764731,139.758659 134.568865,139.954555 C136.700344,142.086366 138.843345,144.2297 140.974824,146.373034 Z" id="Path"></path>
                        <path d="M141.738499,145.570787 C141.934044,145.363367 142.141091,145.167471 142.348138,144.960052 C140.220153,142.816718 138.080665,140.673384 135.95268,138.541573 C135.745633,138.748992 135.538586,138.956412 135.331539,139.163831 C137.471026,141.295642 139.599012,143.427453 141.738499,145.570787 Z" id="Path"></path>
                        <path d="M142.565938,144.730337 C142.772985,144.534441 142.980032,144.315498 143.187079,144.119602 C141.047592,141.976268 138.919607,139.844458 136.780119,137.701124 C136.584574,137.908543 136.377527,138.115962 136.17048,138.323382 C138.298465,140.455192 140.437953,142.598526 142.565938,144.730337 Z" id="Path"></path>
                        <path d="M143.377247,143.966292 C143.584634,143.747349 143.792021,143.551453 143.987887,143.344034 C141.856408,141.212223 139.713407,139.068889 137.581928,136.937079 C137.37454,137.132975 137.178675,137.340394 136.971288,137.547814 C139.102767,139.691148 141.234246,141.822958 143.377247,143.966292 Z" id="Path"></path>
                        <path d="M144.140922,143.164045 C144.347969,142.956626 144.555016,142.749206 144.750561,142.55331 C142.622576,140.409976 140.483088,138.266642 138.355103,136.134831 C138.148056,136.342251 137.952511,136.538147 137.733961,136.75709 C139.873449,138.8889 142.001434,141.020711 144.140922,143.164045 Z" id="Path"></path>
                        <path d="M144.978862,142.361798 C145.186249,142.154038 145.382115,141.95782 145.589502,141.75006 C143.446501,139.603207 141.315022,137.467895 139.172021,135.332584 C138.976155,135.528802 138.768768,135.736562 138.572903,135.93278 C140.704382,138.079633 142.835861,140.214944 144.978862,142.361798 Z" id="Path"></path>
                        <path d="M145.791191,141.521348 C145.987057,141.313588 146.194444,141.117371 146.39031,140.909611 C144.25883,138.774299 142.115829,136.627446 139.98435,134.492135 C139.776963,134.699895 139.581097,134.896113 139.37371,135.103873 C141.505189,137.239184 143.64819,139.374495 145.791191,141.521348 Z" id="Path"></path>
                        <path d="M146.569976,140.719101 C146.777023,140.522883 146.972567,140.315123 147.191117,140.107363 C145.051629,137.96051 142.923644,135.825199 140.784157,133.689888 C140.577109,133.897648 140.370062,134.093865 140.174518,134.301625 C142.302503,136.436937 144.44199,138.58379 146.569976,140.719101 Z" id="Path"></path>
                        <path d="M147.381285,139.916854 C147.588672,139.709435 147.784537,139.513538 147.991925,139.294596 C145.860445,137.162785 143.717445,135.019451 141.585965,132.88764 C141.378578,133.09506 141.171191,133.302479 140.975325,133.498375 C143.106805,135.641709 145.238284,137.77352 147.381285,139.916854 Z" id="Path"></path>
                        <path d="M148.183093,139.114607 C148.378638,138.918711 148.585685,138.699768 148.792732,138.503872 C146.653244,136.360538 144.525259,134.228727 142.397274,132.085393 C142.190227,132.292813 141.98318,132.500232 141.776133,132.707652 C143.904118,134.839462 146.043606,136.982796 148.183093,139.114607 Z" id="Path"></path>
                        <path d="M148.972398,138.31236 C149.179445,138.1046 149.386493,137.908382 149.59354,137.700622 C147.454052,135.565311 145.314564,133.418457 143.186579,131.283146 C142.991035,131.479364 142.783988,131.687124 142.57694,131.894884 C144.704925,134.030195 146.844413,136.177048 148.972398,138.31236 Z" id="Path"></path>
                        <path d="M149.784708,137.510112 C149.991755,137.302693 150.198803,137.095274 150.394347,136.887854 C148.266362,134.756043 146.126875,132.61271 143.998889,130.480899 C143.791842,130.688318 143.596298,130.884214 143.377748,131.091634 C145.517236,133.234968 147.645221,135.366778 149.784708,137.510112 Z" id="Path"></path>
                        <path d="M150.584515,136.707865 C150.791902,136.500446 150.987768,136.293026 151.195155,136.09713 C149.052154,133.953796 146.920675,131.821986 144.789195,129.678652 C144.581808,129.886071 144.374421,130.093491 144.178555,130.289387 C146.310035,132.421197 148.453035,134.564531 150.584515,136.707865 Z" id="Path"></path>
                        <path d="M151.386323,135.905618 C151.581868,135.697858 151.788915,135.50164 151.995962,135.29388 C149.856475,133.158569 147.716987,131.011716 145.589002,128.876404 C145.393457,129.072622 145.18641,129.280382 144.979363,129.4766 C147.118851,131.623453 149.246836,133.758765 151.386323,135.905618 Z" id="Path"></path>
                        <path d="M152.175628,135.103371 C152.382675,134.907475 152.589723,134.700055 152.79677,134.492636 C150.657282,132.349302 148.529297,130.217491 146.389809,128.074157 C146.182762,128.2931 145.987218,128.488996 145.78017,128.696416 C147.908156,130.828226 150.047643,132.97156 152.175628,135.103371 Z" id="Path"></path>
                        <path d="M152.976436,134.301124 C153.183483,134.093704 153.379028,133.886285 153.597577,133.678865 C151.45809,131.547055 149.318602,129.403721 147.190617,127.27191 C146.98357,127.47933 146.776523,127.686749 146.580978,127.882645 C148.708963,130.014456 150.848451,132.15779 152.976436,134.301124 Z" id="Path"></path>
                        <path d="M153.788746,133.498876 C153.984291,133.291457 154.20284,133.084038 154.398385,132.888141 C152.2704,130.744808 150.130912,128.601474 148.002927,126.469663 C147.79588,126.677082 147.588833,126.884502 147.381786,127.091921 C149.521273,129.223732 151.649258,131.355542 153.788746,133.498876 Z" id="Path"></path>
                        <path d="M154.578051,132.696629 C154.796601,132.488869 154.992145,132.281109 155.199192,132.084891 C153.059705,129.938038 150.93172,127.802727 148.792232,125.667416 C148.596687,125.863634 148.38964,126.071394 148.182593,126.279154 C150.310578,128.414465 152.450066,130.561318 154.578051,132.696629 Z" id="Path"></path>
                        <polygon id="Rectangle" transform="translate(152.486825, 128.387818) rotate(-45.000000) translate(-152.486825, -128.387818) " points="152.058616 123.859959 152.923618 123.859139 152.915035 132.915678 152.050032 132.916498"></polygon>
                    </g>
                </g>
                <path d="M22.376,123.808 C24.456,123.808 26.312,123.696 27.944,123.472 C31.496,122.992 35.424,121.448 39.728,118.84 C44.032,116.232 47.48,112.912 50.072,108.88 C51.992,105.872 53.736,102.6 55.304,99.064 C56.872,95.528 58.088,92.4 58.952,89.68 C61.224,82.48 63.592,76.752 66.056,72.496 L66.056,72.496 L68.12,72.112 C69.336,71.728 70.28,71.304 70.952,70.84 C71.624,70.376 71.976,69.712 72.008,68.848 C72.008,67.888 71.448,67.408 70.328,67.408 C70.008,67.408 69.592,67.488 69.08,67.648 C68.568,67.808 67.928,68.32 67.16,69.184 C66.392,70.048 65.816,70.8 65.432,71.44 C60.888,72.048 56.68,73.104 52.808,74.608 C50.408,75.536 48.256,76.592 46.352,77.776 C44.448,78.96 42.792,80.464 41.384,82.288 C39.528,84.656 38.6,87.136 38.6,89.728 C38.6,91.776 39.336,93.408 40.808,94.624 C41.96,95.552 43.256,96.016 44.696,96.016 C45.56,96.016 46.472,95.856 47.432,95.536 C49.512,94.8 51.144,93.424 52.328,91.408 C53.032,90.192 53.384,89.112 53.384,88.168 C53.384,87.224 53.224,86.4 52.904,85.696 C52.52,85.28 52.152,85.168 51.8,85.36 C51.48,85.584 51.512,85.824 51.896,86.08 C52.12,86.336 52.232,86.848 52.232,87.616 C52.232,89.44 51.624,91.056 50.408,92.464 C49.64,93.328 48.776,93.936 47.816,94.288 C46.856,94.64 45.976,94.816 45.176,94.816 C44.376,94.816 43.616,94.4 42.896,93.568 C42.176,92.736 41.816,91.568 41.816,90.064 C41.816,87.28 42.888,84.672 45.032,82.24 C46.696,80.32 48.696,78.736 51.032,77.488 C55.64,75.024 60.168,73.424 64.616,72.688 C62.024,76.784 59.464,81.648 56.936,87.28 C54.92,92.016 52.952,96.208 51.032,99.856 C49.848,102.096 48.728,104.016 47.672,105.616 C46.616,107.216 45.312,108.992 43.76,110.944 C42.208,112.896 40.648,114.536 39.08,115.864 C37.512,117.192 35.712,118.416 33.68,119.536 C31.648,120.656 29.544,121.456 27.368,121.936 C26.376,122.192 25.24,122.32 23.96,122.32 C22.68,122.32 20.952,122.112 18.776,121.696 C17.304,121.408 15.928,120.88 14.648,120.112 C13.368,119.344 12.296,118.48 11.432,117.52 C10.184,116.08 9.56,114.192 9.56,111.856 C9.56,111.088 9.76,109.992 10.16,108.568 C10.56,107.144 11.384,105.728 12.632,104.32 C13.88,102.912 15.016,102 16.04,101.584 C16.424,101.392 16.632,101.232 16.664,101.104 C16.664,100.944 16.472,100.88 16.088,100.912 C15.224,100.944 14.024,101.6 12.488,102.88 C10.952,104.16 9.88,105.536 9.272,107.008 C8.408,109.216 7.976,111.136 7.976,112.768 C7.976,114.4 8.264,115.824 8.84,117.04 C10.12,119.664 12.488,121.552 15.944,122.704 C18.152,123.44 20.296,123.808 22.376,123.808 Z M66.92,71.296 C66.984,71.232 67.112,71.096 67.304,70.888 C67.496,70.68 67.648,70.52 67.76,70.408 C67.872,70.296 68.016,70.144 68.192,69.952 C68.368,69.76 68.52,69.616 68.648,69.52 C68.776,69.424 68.912,69.32 69.056,69.208 C69.2,69.096 69.312,69.024 69.392,68.992 C69.472,68.96 69.544,68.944 69.608,68.944 C69.928,68.944 70.12,69.136 70.184,69.52 C70.216,70.32 69.128,70.912 66.92,71.296 Z M70.352,105.952 C71.552,105.952 72.776,105.248 74.024,103.84 C74.504,103.296 75.024,102.552 75.584,101.608 C76.144,100.664 76.56,99.92 76.832,99.376 C77.104,98.832 77.384,98.272 77.672,97.696 C77.96,97.12 78.104,96.752 78.104,96.592 C78.104,96.432 78.008,96.304 77.816,96.208 C77.624,96.112 77.432,96.288 77.24,96.736 C74.712,102.08 72.584,104.752 70.856,104.752 C70.152,104.688 69.8,104.144 69.8,103.12 C69.8,102.736 69.848,102.32 69.944,101.872 C70.168,100.624 71.24,98.08 73.16,94.24 C73.864,92.768 74.416,91.744 74.816,91.168 C75.216,90.592 75.768,90.032 76.472,89.488 L76.472,89.488 L73.88,89.488 C72.984,89.488 72.36,89.824 72.008,90.496 C68.936,96.864 66.552,101.04 64.856,103.024 C63.768,104.304 62.92,104.944 62.312,104.944 C61.896,104.944 61.568,104.8 61.328,104.512 C61.088,104.224 60.968,103.728 60.968,103.024 C60.968,102.32 61.288,101.288 61.928,99.928 C62.568,98.568 63.472,96.696 64.64,94.312 C65.808,91.928 66.968,90.32 68.12,89.488 L68.12,89.488 L65.192,89.488 C64.264,89.488 63.64,89.824 63.32,90.496 C62.616,91.936 61.72,93.696 60.632,95.776 L60.632,95.776 L59.768,97.456 C59.544,97.968 59.688,98.224 60.2,98.224 C59.016,100.176 58.424,101.84 58.424,103.216 C58.424,103.44 58.472,103.632 58.568,103.792 C58.856,105.232 59.864,105.952 61.592,105.952 C63.576,105.952 65.736,103.904 68.072,99.808 C67.752,100.896 67.592,101.808 67.592,102.544 C67.592,103.28 67.688,103.888 67.88,104.368 C68.328,105.424 69.152,105.952 70.352,105.952 Z M72.728,106.24 C72.952,106.112 73.416,106.032 74.12,106 C74.824,105.968 75.296,105.912 75.536,105.832 C75.776,105.752 75.976,105.536 76.136,105.184 C78.312,100.992 80.52,97.872 82.76,95.824 C83.944,94.704 84.824,94 85.4,93.712 C85.656,93.584 85.856,93.528 86,93.544 C86.144,93.56 86.2,93.784 86.168,94.216 C86.136,94.648 85.832,95.472 85.256,96.688 C83.496,100.368 82.616,102.864 82.616,104.176 C82.616,104.496 82.744,104.88 83,105.328 C83.256,105.776 83.656,106 84.2,106 C84.488,104.688 85.392,102.944 86.912,100.768 C88.432,98.592 89.88,96.864 91.256,95.584 C92.632,94.304 93.584,93.664 94.112,93.664 C94.64,93.664 94.904,93.832 94.904,94.168 C94.904,94.504 94.728,94.96 94.376,95.536 C92.936,97.84 92.056,99.504 91.736,100.528 C91.416,101.552 91.256,102.424 91.256,103.144 C91.256,103.864 91.4,104.432 91.688,104.848 C92.328,105.744 93.104,106.192 94.016,106.192 C94.928,106.192 95.744,105.944 96.464,105.448 C97.184,104.952 97.776,104.448 98.24,103.936 C98.704,103.424 99.264,102.624 99.92,101.536 C100.576,100.448 101,99.712 101.192,99.328 C101.384,98.944 101.64,98.432 101.96,97.792 C102.28,97.152 102.44,96.752 102.44,96.592 C102.44,96.432 102.344,96.304 102.152,96.208 C101.96,96.112 101.768,96.288 101.576,96.736 C100.456,99.296 99.144,101.488 97.64,103.312 C96.648,104.464 95.768,105.04 95,105.04 C94.392,105.04 94.088,104.592 94.088,103.696 C94.088,101.68 96.04,97.2 99.944,90.256 C99.816,90.192 99.656,90.16 99.464,90.16 C98.664,90.16 97.392,90.64 95.648,91.6 C93.904,92.56 92.392,93.608 91.112,94.744 C89.832,95.88 88.488,97.328 87.08,99.088 C87.4,98.448 88.104,97.136 89.192,95.152 C90.28,93.168 90.824,91.936 90.824,91.456 C90.824,90.912 90.504,90.512 89.864,90.256 C89.768,90.128 89.592,90.104 89.336,90.184 C89.08,90.264 88.88,90.304 88.736,90.304 C88.592,90.304 88.368,90.4 88.064,90.592 C87.76,90.784 87.52,90.92 87.344,91 C87.168,91.08 86.92,91.248 86.6,91.504 C86.28,91.76 86.032,91.96 85.856,92.104 C85.68,92.248 85.424,92.472 85.088,92.776 C84.752,93.08 84.496,93.312 84.32,93.472 C84.144,93.632 83.896,93.856 83.576,94.144 C83.256,94.432 82.768,94.864 82.112,95.44 C81.456,96.016 80.376,97.232 78.872,99.088 C81.56,93.712 83.496,90.704 84.68,90.064 C84.424,90.128 84.032,90.112 83.504,90.016 C82.976,89.92 82.648,89.872 82.52,89.872 C81.848,89.872 81.32,90.064 80.936,90.448 C80.072,91.28 78.344,94.448 75.752,99.952 C74.312,103.024 73.304,105.12 72.728,106.24 Z M94.568,119.008 C94.952,119.008 95.352,118.848 95.768,118.528 C96.184,118.208 96.632,117.536 97.112,116.512 L97.112,116.512 L101.672,105.136 C102.76,105.712 103.76,106 104.672,106 C105.584,106 106.392,105.904 107.096,105.712 C108.952,105.136 110.528,104.064 111.824,102.496 C113.12,100.928 114.136,99.296 114.872,97.6 C115.608,95.904 115.976,94.352 115.976,92.944 C115.976,90.864 115.176,89.616 113.576,89.2 C113.352,89.136 113.112,89.104 112.856,89.104 C111.992,89.104 111.096,89.552 110.168,90.448 C109.56,91.024 108.992,91.584 108.464,92.128 C107.936,92.672 107.096,93.872 105.944,95.728 L105.944,95.728 L104.984,97.264 C105.88,94.864 106.328,92.688 106.328,90.736 C106.328,90.416 106.288,90.128 106.208,89.872 C106.128,89.616 105.928,89.48 105.608,89.464 C105.288,89.448 104.168,89.6 102.248,89.92 C102.696,90.112 102.92,90.792 102.92,91.96 C102.92,93.128 102.632,94.4 102.056,95.776 C101.608,96.832 101.288,97.544 101.096,97.912 C100.904,98.28 100.904,98.464 101.096,98.464 C101.416,98.432 101.752,98.16 102.104,97.648 C101.72,99.632 100.096,103.48 97.232,109.192 C94.368,114.904 92.584,118.096 91.88,118.768 C92.136,118.736 92.512,118.768 93.008,118.864 C93.504,118.96 93.792,119.008 93.872,119.008 L93.872,119.008 L94.568,119.008 Z M103.784,105.04 C103.048,105.04 102.472,104.832 102.056,104.416 C104.84,99.232 106.976,95.6 108.464,93.52 C109.952,91.44 111.256,90.4 112.376,90.4 C112.824,90.4 113.152,90.616 113.36,91.048 C113.568,91.48 113.672,91.952 113.672,92.464 C113.672,93.552 113.208,94.96 112.28,96.688 C110.84,99.344 109.048,101.568 106.904,103.36 C105.56,104.48 104.52,105.04 103.784,105.04 Z" id="Jump" stroke="#FFFFFF" stroke-width="3" fill="#570000" fill-rule="nonzero"></path>
                <path d="M22.376,123.808 C24.456,123.808 26.312,123.696 27.944,123.472 C31.496,122.992 35.424,121.448 39.728,118.84 C44.032,116.232 47.48,112.912 50.072,108.88 C51.992,105.872 53.736,102.6 55.304,99.064 C56.872,95.528 58.088,92.4 58.952,89.68 C61.224,82.48 63.592,76.752 66.056,72.496 L66.056,72.496 L68.12,72.112 C69.336,71.728 70.28,71.304 70.952,70.84 C71.624,70.376 71.976,69.712 72.008,68.848 C72.008,67.888 71.448,67.408 70.328,67.408 C70.008,67.408 69.592,67.488 69.08,67.648 C68.568,67.808 67.928,68.32 67.16,69.184 C66.392,70.048 65.816,70.8 65.432,71.44 C60.888,72.048 56.68,73.104 52.808,74.608 C50.408,75.536 48.256,76.592 46.352,77.776 C44.448,78.96 42.792,80.464 41.384,82.288 C39.528,84.656 38.6,87.136 38.6,89.728 C38.6,91.776 39.336,93.408 40.808,94.624 C41.96,95.552 43.256,96.016 44.696,96.016 C45.56,96.016 46.472,95.856 47.432,95.536 C49.512,94.8 51.144,93.424 52.328,91.408 C53.032,90.192 53.384,89.112 53.384,88.168 C53.384,87.224 53.224,86.4 52.904,85.696 C52.52,85.28 52.152,85.168 51.8,85.36 C51.48,85.584 51.512,85.824 51.896,86.08 C52.12,86.336 52.232,86.848 52.232,87.616 C52.232,89.44 51.624,91.056 50.408,92.464 C49.64,93.328 48.776,93.936 47.816,94.288 C46.856,94.64 45.976,94.816 45.176,94.816 C44.376,94.816 43.616,94.4 42.896,93.568 C42.176,92.736 41.816,91.568 41.816,90.064 C41.816,87.28 42.888,84.672 45.032,82.24 C46.696,80.32 48.696,78.736 51.032,77.488 C55.64,75.024 60.168,73.424 64.616,72.688 C62.024,76.784 59.464,81.648 56.936,87.28 C54.92,92.016 52.952,96.208 51.032,99.856 C49.848,102.096 48.728,104.016 47.672,105.616 C46.616,107.216 45.312,108.992 43.76,110.944 C42.208,112.896 40.648,114.536 39.08,115.864 C37.512,117.192 35.712,118.416 33.68,119.536 C31.648,120.656 29.544,121.456 27.368,121.936 C26.376,122.192 25.24,122.32 23.96,122.32 C22.68,122.32 20.952,122.112 18.776,121.696 C17.304,121.408 15.928,120.88 14.648,120.112 C13.368,119.344 12.296,118.48 11.432,117.52 C10.184,116.08 9.56,114.192 9.56,111.856 C9.56,111.088 9.76,109.992 10.16,108.568 C10.56,107.144 11.384,105.728 12.632,104.32 C13.88,102.912 15.016,102 16.04,101.584 C16.424,101.392 16.632,101.232 16.664,101.104 C16.664,100.944 16.472,100.88 16.088,100.912 C15.224,100.944 14.024,101.6 12.488,102.88 C10.952,104.16 9.88,105.536 9.272,107.008 C8.408,109.216 7.976,111.136 7.976,112.768 C7.976,114.4 8.264,115.824 8.84,117.04 C10.12,119.664 12.488,121.552 15.944,122.704 C18.152,123.44 20.296,123.808 22.376,123.808 Z M66.92,71.296 C66.984,71.232 67.112,71.096 67.304,70.888 C67.496,70.68 67.648,70.52 67.76,70.408 C67.872,70.296 68.016,70.144 68.192,69.952 C68.368,69.76 68.52,69.616 68.648,69.52 C68.776,69.424 68.912,69.32 69.056,69.208 C69.2,69.096 69.312,69.024 69.392,68.992 C69.472,68.96 69.544,68.944 69.608,68.944 C69.928,68.944 70.12,69.136 70.184,69.52 C70.216,70.32 69.128,70.912 66.92,71.296 Z M70.352,105.952 C71.552,105.952 72.776,105.248 74.024,103.84 C74.504,103.296 75.024,102.552 75.584,101.608 C76.144,100.664 76.56,99.92 76.832,99.376 C77.104,98.832 77.384,98.272 77.672,97.696 C77.96,97.12 78.104,96.752 78.104,96.592 C78.104,96.432 78.008,96.304 77.816,96.208 C77.624,96.112 77.432,96.288 77.24,96.736 C74.712,102.08 72.584,104.752 70.856,104.752 C70.152,104.688 69.8,104.144 69.8,103.12 C69.8,102.736 69.848,102.32 69.944,101.872 C70.168,100.624 71.24,98.08 73.16,94.24 C73.864,92.768 74.416,91.744 74.816,91.168 C75.216,90.592 75.768,90.032 76.472,89.488 L76.472,89.488 L73.88,89.488 C72.984,89.488 72.36,89.824 72.008,90.496 C68.936,96.864 66.552,101.04 64.856,103.024 C63.768,104.304 62.92,104.944 62.312,104.944 C61.896,104.944 61.568,104.8 61.328,104.512 C61.088,104.224 60.968,103.728 60.968,103.024 C60.968,102.32 61.288,101.288 61.928,99.928 C62.568,98.568 63.472,96.696 64.64,94.312 C65.808,91.928 66.968,90.32 68.12,89.488 L68.12,89.488 L65.192,89.488 C64.264,89.488 63.64,89.824 63.32,90.496 C62.616,91.936 61.72,93.696 60.632,95.776 L60.632,95.776 L59.768,97.456 C59.544,97.968 59.688,98.224 60.2,98.224 C59.016,100.176 58.424,101.84 58.424,103.216 C58.424,103.44 58.472,103.632 58.568,103.792 C58.856,105.232 59.864,105.952 61.592,105.952 C63.576,105.952 65.736,103.904 68.072,99.808 C67.752,100.896 67.592,101.808 67.592,102.544 C67.592,103.28 67.688,103.888 67.88,104.368 C68.328,105.424 69.152,105.952 70.352,105.952 Z M72.728,106.24 C72.952,106.112 73.416,106.032 74.12,106 C74.824,105.968 75.296,105.912 75.536,105.832 C75.776,105.752 75.976,105.536 76.136,105.184 C78.312,100.992 80.52,97.872 82.76,95.824 C83.944,94.704 84.824,94 85.4,93.712 C85.656,93.584 85.856,93.528 86,93.544 C86.144,93.56 86.2,93.784 86.168,94.216 C86.136,94.648 85.832,95.472 85.256,96.688 C83.496,100.368 82.616,102.864 82.616,104.176 C82.616,104.496 82.744,104.88 83,105.328 C83.256,105.776 83.656,106 84.2,106 C84.488,104.688 85.392,102.944 86.912,100.768 C88.432,98.592 89.88,96.864 91.256,95.584 C92.632,94.304 93.584,93.664 94.112,93.664 C94.64,93.664 94.904,93.832 94.904,94.168 C94.904,94.504 94.728,94.96 94.376,95.536 C92.936,97.84 92.056,99.504 91.736,100.528 C91.416,101.552 91.256,102.424 91.256,103.144 C91.256,103.864 91.4,104.432 91.688,104.848 C92.328,105.744 93.104,106.192 94.016,106.192 C94.928,106.192 95.744,105.944 96.464,105.448 C97.184,104.952 97.776,104.448 98.24,103.936 C98.704,103.424 99.264,102.624 99.92,101.536 C100.576,100.448 101,99.712 101.192,99.328 C101.384,98.944 101.64,98.432 101.96,97.792 C102.28,97.152 102.44,96.752 102.44,96.592 C102.44,96.432 102.344,96.304 102.152,96.208 C101.96,96.112 101.768,96.288 101.576,96.736 C100.456,99.296 99.144,101.488 97.64,103.312 C96.648,104.464 95.768,105.04 95,105.04 C94.392,105.04 94.088,104.592 94.088,103.696 C94.088,101.68 96.04,97.2 99.944,90.256 C99.816,90.192 99.656,90.16 99.464,90.16 C98.664,90.16 97.392,90.64 95.648,91.6 C93.904,92.56 92.392,93.608 91.112,94.744 C89.832,95.88 88.488,97.328 87.08,99.088 C87.4,98.448 88.104,97.136 89.192,95.152 C90.28,93.168 90.824,91.936 90.824,91.456 C90.824,90.912 90.504,90.512 89.864,90.256 C89.768,90.128 89.592,90.104 89.336,90.184 C89.08,90.264 88.88,90.304 88.736,90.304 C88.592,90.304 88.368,90.4 88.064,90.592 C87.76,90.784 87.52,90.92 87.344,91 C87.168,91.08 86.92,91.248 86.6,91.504 C86.28,91.76 86.032,91.96 85.856,92.104 C85.68,92.248 85.424,92.472 85.088,92.776 C84.752,93.08 84.496,93.312 84.32,93.472 C84.144,93.632 83.896,93.856 83.576,94.144 C83.256,94.432 82.768,94.864 82.112,95.44 C81.456,96.016 80.376,97.232 78.872,99.088 C81.56,93.712 83.496,90.704 84.68,90.064 C84.424,90.128 84.032,90.112 83.504,90.016 C82.976,89.92 82.648,89.872 82.52,89.872 C81.848,89.872 81.32,90.064 80.936,90.448 C80.072,91.28 78.344,94.448 75.752,99.952 C74.312,103.024 73.304,105.12 72.728,106.24 Z M94.568,119.008 C94.952,119.008 95.352,118.848 95.768,118.528 C96.184,118.208 96.632,117.536 97.112,116.512 L97.112,116.512 L101.672,105.136 C102.76,105.712 103.76,106 104.672,106 C105.584,106 106.392,105.904 107.096,105.712 C108.952,105.136 110.528,104.064 111.824,102.496 C113.12,100.928 114.136,99.296 114.872,97.6 C115.608,95.904 115.976,94.352 115.976,92.944 C115.976,90.864 115.176,89.616 113.576,89.2 C113.352,89.136 113.112,89.104 112.856,89.104 C111.992,89.104 111.096,89.552 110.168,90.448 C109.56,91.024 108.992,91.584 108.464,92.128 C107.936,92.672 107.096,93.872 105.944,95.728 L105.944,95.728 L104.984,97.264 C105.88,94.864 106.328,92.688 106.328,90.736 C106.328,90.416 106.288,90.128 106.208,89.872 C106.128,89.616 105.928,89.48 105.608,89.464 C105.288,89.448 104.168,89.6 102.248,89.92 C102.696,90.112 102.92,90.792 102.92,91.96 C102.92,93.128 102.632,94.4 102.056,95.776 C101.608,96.832 101.288,97.544 101.096,97.912 C100.904,98.28 100.904,98.464 101.096,98.464 C101.416,98.432 101.752,98.16 102.104,97.648 C101.72,99.632 100.096,103.48 97.232,109.192 C94.368,114.904 92.584,118.096 91.88,118.768 C92.136,118.736 92.512,118.768 93.008,118.864 C93.504,118.96 93.792,119.008 93.872,119.008 L93.872,119.008 L94.568,119.008 Z M103.784,105.04 C103.048,105.04 102.472,104.832 102.056,104.416 C104.84,99.232 106.976,95.6 108.464,93.52 C109.952,91.44 111.256,90.4 112.376,90.4 C112.824,90.4 113.152,90.616 113.36,91.048 C113.568,91.48 113.672,91.952 113.672,92.464 C113.672,93.552 113.208,94.96 112.28,96.688 C110.84,99.344 109.048,101.568 106.904,103.36 C105.56,104.48 104.52,105.04 103.784,105.04 Z" id="Jump" fill="#003357" fill-rule="nonzero"></path>
                <path d="M55.472,132.024 C56.448,132.024 57.368,131.328 58.232,129.936 C58.536,129.472 58.952,128.688 59.48,127.584 C59.544,127.424 59.568,127.308 59.552,127.236 C59.536,127.164 59.484,127.144 59.396,127.176 C59.308,127.208 59.232,127.296 59.168,127.44 C58.24,129.28 57.392,130.488 56.624,131.064 C56.288,131.256 55.984,131.352 55.712,131.352 C55.472,131.352 55.296,131.248 55.184,131.04 C55.072,130.832 55.016,130.628 55.016,130.428 C55.016,130.228 55.04,130.024 55.088,129.816 L55.088,129.816 L55.64,127.368 C56.888,126.216 57.952,124.896 58.832,123.408 L58.832,123.408 L60.224,123.408 C60.304,123.408 60.364,123.364 60.404,123.276 C60.444,123.188 60.452,123.1 60.428,123.012 C60.404,122.924 60.352,122.88 60.272,122.88 L60.272,122.88 L59.12,122.88 C59.472,122.208 59.832,121.48 60.2,120.696 C60.568,119.912 60.752,119.244 60.752,118.692 C60.752,118.14 60.568,117.776 60.2,117.6 C60.12,117.568 59.988,117.552 59.804,117.552 C59.62,117.552 59.32,117.7 58.904,117.996 C58.488,118.292 58.032,118.864 57.536,119.712 C57.04,120.56 56.504,121.616 55.928,122.88 L55.928,122.88 L54.488,122.88 C54.408,122.88 54.348,122.924 54.308,123.012 C54.268,123.1 54.26,123.188 54.284,123.276 C54.308,123.364 54.36,123.408 54.44,123.408 L54.44,123.408 L55.688,123.408 C54.408,126.528 53.768,128.752 53.768,130.08 C53.768,130.64 53.928,131.104 54.248,131.472 C54.568,131.84 54.976,132.024 55.472,132.024 Z M58.592,122.88 L57.392,122.88 C58.24,120.96 58.844,119.744 59.204,119.232 C59.564,118.72 59.832,118.464 60.008,118.464 C60.12,118.464 60.176,118.624 60.176,118.944 C60.176,119.68 59.648,120.992 58.592,122.88 L58.592,122.88 Z M55.856,126.6 C56.528,124.92 56.96,123.856 57.152,123.408 L57.152,123.408 L58.28,123.408 C57.528,124.64 56.72,125.704 55.856,126.6 Z M56.84,132.168 C56.952,132.104 57.224,132.056 57.656,132.024 C58.136,132.024 58.432,131.904 58.544,131.664 C59.632,129.552 60.752,127.968 61.904,126.912 C62.672,126.192 63.192,125.832 63.464,125.832 C63.736,125.832 63.872,125.916 63.872,126.084 C63.872,126.252 63.784,126.48 63.608,126.768 C62.888,127.92 62.448,128.752 62.288,129.264 C62.128,129.776 62.048,130.212 62.048,130.572 C62.048,130.932 62.12,131.216 62.264,131.424 C62.584,131.872 63.016,132.096 63.56,132.096 C64.392,132.096 65.176,131.536 65.912,130.416 C66.264,129.856 66.532,129.404 66.716,129.06 C66.9,128.716 67.084,128.356 67.268,127.98 C67.452,127.604 67.544,127.376 67.544,127.296 C67.544,127.216 67.5,127.152 67.412,127.104 C67.324,127.056 67.224,127.144 67.112,127.368 C65.736,130.184 64.672,131.592 63.92,131.592 C63.6,131.592 63.44,131.368 63.44,130.92 C63.44,129.848 64.424,127.584 66.392,124.128 C66.312,124.096 66.224,124.08 66.128,124.08 C65.728,124.08 65.096,124.316 64.232,124.788 C63.368,125.26 62.636,125.76 62.036,126.288 C61.436,126.816 60.76,127.552 60.008,128.496 C61.144,126.176 62.332,123.892 63.572,121.644 C64.812,119.396 65.672,118.024 66.152,117.528 C66.024,117.544 65.832,117.532 65.576,117.492 C65.32,117.452 65.152,117.432 65.072,117.432 C64.752,117.432 64.476,117.544 64.244,117.768 C64.012,117.992 63.744,118.384 63.44,118.944 C62.08,121.44 59.88,125.848 56.84,132.168 Z M68.816,132.096 C70.016,132.096 71.024,131.536 71.84,130.416 C72.208,129.936 72.572,129.308 72.932,128.532 C73.292,127.756 73.472,127.336 73.472,127.272 C73.472,127.208 73.44,127.168 73.376,127.152 C73.216,127.12 73.08,127.232 72.968,127.488 C71.784,130.224 70.464,131.592 69.008,131.592 C68.64,131.592 68.356,131.46 68.156,131.196 C67.956,130.932 67.856,130.576 67.856,130.128 C67.856,129.456 67.968,128.848 68.192,128.304 C68.528,128.304 69.016,128.196 69.656,127.98 C70.296,127.764 70.792,127.52 71.144,127.248 C72.296,126.368 72.872,125.448 72.872,124.488 C72.872,124.216 72.736,123.968 72.464,123.744 C72.176,123.552 71.864,123.456 71.528,123.456 C71.192,123.456 70.84,123.536 70.472,123.696 C69.704,124.016 69.024,124.524 68.432,125.22 C67.84,125.916 67.372,126.668 67.028,127.476 C66.684,128.284 66.512,129.048 66.512,129.768 C66.512,130.488 66.736,131.056 67.184,131.472 C67.632,131.888 68.176,132.096 68.816,132.096 Z M68.36,127.896 C68.776,127.064 69.256,126.312 69.8,125.64 C70.712,124.536 71.392,123.984 71.84,123.984 C72.096,123.984 72.224,124.144 72.224,124.464 C72.224,125.296 71.784,126.088 70.904,126.84 C70.52,127.16 70.068,127.416 69.548,127.608 C69.028,127.8 68.632,127.896 68.36,127.896 Z" id="the" fill="#003357" fill-rule="nonzero"></path>
                <g id="BROOM" transform="translate(77.052000, 122.224000)" fill="#003357" fill-rule="nonzero">
                    <path d="M14.184,25.776 C17.64,25.776 20.28,25.17 22.104,23.958 C23.928,22.746 24.84,21.036 24.84,18.828 C24.84,17.34 24.432,16.068 23.616,15.012 C22.8,13.956 21.648,13.152 20.16,12.6 C21.312,12.024 22.182,11.268 22.77,10.332 C23.358,9.396 23.652,8.34 23.652,7.164 C23.652,5.172 22.794,3.576 21.078,2.376 C19.362,1.176 16.824,0.576 13.464,0.576 L13.464,0.576 L-3.55271368e-14,0.576 L-3.55271368e-14,25.776 L14.184,25.776 Z M12.312,10.26 L8.352,10.26 L8.352,6.516 L12.312,6.516 C14.16,6.516 15.084,7.14 15.084,8.388 C15.084,9.636 14.16,10.26 12.312,10.26 L12.312,10.26 Z M13.464,19.836 L8.352,19.836 L8.352,15.876 L13.464,15.876 C15.336,15.876 16.272,16.536 16.272,17.856 C16.272,19.176 15.336,19.836 13.464,19.836 L13.464,19.836 Z M36.324,25.776 L36.324,19.44 L38.628,19.44 L42.912,25.776 L51.984,25.776 L46.692,18 C48.228,17.208 49.404,16.14 50.22,14.796 C51.036,13.452 51.444,11.88 51.444,10.08 C51.444,8.16 50.976,6.48 50.04,5.04 C49.104,3.6 47.772,2.496 46.044,1.728 C44.316,0.96 42.288,0.576 39.96,0.576 L39.96,0.576 L27.828,0.576 L27.828,25.776 L36.324,25.776 Z M39.42,13.032 L36.324,13.032 L36.324,7.128 L39.42,7.128 C40.572,7.128 41.436,7.386 42.012,7.902 C42.588,8.418 42.876,9.144 42.876,10.08 C42.876,11.016 42.588,11.742 42.012,12.258 C41.436,12.774 40.572,13.032 39.42,13.032 L39.42,13.032 Z" id="BR"></path>
                    <path d="M67.86,26.352 C70.572,26.352 73.008,25.788 75.168,24.66 C77.328,23.532 79.02,21.966 80.244,19.962 C81.468,17.958 82.08,15.696 82.08,13.176 C82.08,10.656 81.468,8.394 80.244,6.39 C79.02,4.386 77.328,2.82 75.168,1.692 C73.008,0.564 70.572,2.13162821e-14 67.86,2.13162821e-14 C65.148,2.13162821e-14 62.712,0.564 60.552,1.692 C58.392,2.82 56.7,4.386 55.476,6.39 C54.252,8.394 53.64,10.656 53.64,13.176 C53.64,15.696 54.252,17.958 55.476,19.962 C56.7,21.966 58.392,23.532 60.552,24.66 C62.712,25.788 65.148,26.352 67.86,26.352 Z M67.86,19.476 C66.804,19.476 65.85,19.218 64.998,18.702 C64.146,18.186 63.468,17.454 62.964,16.506 C62.46,15.558 62.208,14.448 62.208,13.176 C62.208,11.904 62.46,10.794 62.964,9.846 C63.468,8.898 64.146,8.166 64.998,7.65 C65.85,7.134 66.804,6.876 67.86,6.876 C68.916,6.876 69.87,7.134 70.722,7.65 C71.574,8.166 72.252,8.898 72.756,9.846 C73.26,10.794 73.512,11.904 73.512,13.176 C73.512,14.448 73.26,15.558 72.756,16.506 C72.252,17.454 71.574,18.186 70.722,18.702 C69.87,19.218 68.916,19.476 67.86,19.476 Z M98.388,26.352 C101.1,26.352 103.536,25.788 105.696,24.66 C107.856,23.532 109.548,21.966 110.772,19.962 C111.996,17.958 112.608,15.696 112.608,13.176 C112.608,10.656 111.996,8.394 110.772,6.39 C109.548,4.386 107.856,2.82 105.696,1.692 C103.536,0.564 101.1,2.13162821e-14 98.388,2.13162821e-14 C95.676,2.13162821e-14 93.24,0.564 91.08,1.692 C88.92,2.82 87.228,4.386 86.004,6.39 C84.78,8.394 84.168,10.656 84.168,13.176 C84.168,15.696 84.78,17.958 86.004,19.962 C87.228,21.966 88.92,23.532 91.08,24.66 C93.24,25.788 95.676,26.352 98.388,26.352 Z M98.388,19.476 C97.332,19.476 96.378,19.218 95.526,18.702 C94.674,18.186 93.996,17.454 93.492,16.506 C92.988,15.558 92.736,14.448 92.736,13.176 C92.736,11.904 92.988,10.794 93.492,9.846 C93.996,8.898 94.674,8.166 95.526,7.65 C96.378,7.134 97.332,6.876 98.388,6.876 C99.444,6.876 100.398,7.134 101.25,7.65 C102.102,8.166 102.78,8.898 103.284,9.846 C103.788,10.794 104.04,11.904 104.04,13.176 C104.04,14.448 103.788,15.558 103.284,16.506 C102.78,17.454 102.102,18.186 101.25,18.702 C100.398,19.218 99.444,19.476 98.388,19.476 Z" id="OO" fill-opacity="0.00114729021"></path>
                    <polygon id="M" points="123.444 25.776 123.444 14.688 128.916 23.508 132.66 23.508 138.132 14.292 138.204 25.776 145.944 25.776 145.872 0.576 138.888 0.576 130.896 14.004 122.688 0.576 115.704 0.576 115.704 25.776"></polygon>
                </g>
                <g id="noun_wedding-rings_1857256" transform="translate(159.500000, 138.000000) scale(-1, 1) translate(-159.500000, -138.000000) translate(131.000000, 116.000000)" fill="#000000" fill-rule="nonzero">
                    <g id="Group" transform="translate(0.000000, 2.000000)">
                        <path d="M3.51047817,22.1676 L4.95974672,22.5306806 C5.08668996,22.0170269 5.24910262,21.5066328 5.44287773,21.0135403 L4.05421834,20.4597672 C3.83605022,21.0146687 3.65322707,21.5892537 3.51047817,22.1676 Z" id="Path"></path>
                        <path d="M44.5854498,0.93678806 C40.7307314,-0.291492537 36.5393646,-0.149444776 32.7833384,1.33710448 C29.0821965,2.80208955 25.9475699,5.50413134 23.9569258,8.94587463 L25.2473908,9.70325373 C29.025321,3.17106269 36.9689803,0.0873850746 44.1350502,2.37118209 C52.6559279,5.08638806 57.3953908,14.2788716 54.7000873,22.8626687 C52.0046594,31.4463403 42.8799301,36.2210507 34.3588035,33.5057194 C27.0903079,31.1894507 22.3609258,23.9707164 23.1135,16.3408836 L21.627393,16.1920657 C21.2318777,20.2014985 22.2227817,24.2797612 24.4172817,27.6757433 C25.1688603,28.8385791 26.0513646,29.9024955 27.0402773,30.8500657 C25.5925022,33.6956597 23.0616026,35.8538328 20.0215611,36.811809 C16.9963297,37.7651463 13.784417,37.4747821 10.976607,35.9943761 C8.16854803,34.5137194 6.10111572,32.0199224 5.15489083,28.9723522 C4.64350873,27.3254507 4.49067904,25.6297791 4.70100655,23.9324776 L3.21900655,23.7462985 C2.98229476,25.6584896 3.15404148,27.5679224 3.72964192,29.4216896 C4.79509389,32.8527761 7.12288428,35.6605075 10.2842686,37.3273433 C12.223762,38.3500119 14.3345044,38.8683045 16.4629192,38.8683045 C17.8035393,38.8683045 19.1515022,38.6625672 20.4676048,38.2478328 C23.7718624,37.206609 26.5419629,34.9061373 28.1962074,31.8657134 C28.6049148,32.1946925 29.0279345,32.5057433 29.4640218,32.7973612 C27.596214,36.1371761 24.5903974,38.5921075 20.9331878,39.7449134 C17.1311135,40.9432299 13.0928253,40.5781433 9.56280786,38.7169791 C6.03279039,36.8558149 3.4335655,33.7212358 2.2439083,29.8908358 C0.149967249,23.1453851 3.06493231,15.7473672 9.17513319,12.2999821 L8.44545852,10.9873254 C5.21077074,12.8123821 2.65983406,15.7353313 1.26246288,19.2179463 C-0.15419869,22.7487045 -0.311882096,26.6987104 0.818534934,30.3400478 C3.0120393,37.4029433 9.50306987,41.9370627 16.4894279,41.9364358 C18.1082031,41.9364358 19.7547314,41.6928358 21.3792314,41.1808119 C25.3885218,39.9170507 28.6865568,37.230806 30.7430371,33.5761791 C31.7468843,34.1307045 32.8067358,34.589194 33.9087773,34.9403642 C35.6786397,35.5042925 37.4714017,35.7724657 39.2361616,35.7723403 C46.7505786,35.7719642 53.7406703,30.9084896 56.1244651,23.3166448 C59.0676812,13.9417433 53.8913843,3.90223881 44.5854498,0.93678806 Z" id="Path"></path>
                        <path d="M28.4305546,27.516394 C29.2545655,28.4630866 30.1956878,29.2950627 31.2262926,29.9881254 C32.3590742,30.7536537 33.5967707,31.3528119 34.9046594,31.7684239 C36.3367533,32.2249075 37.8035699,32.4510806 39.2637904,32.4510806 C41.5422969,32.4510806 43.8036288,31.8996896 45.8837555,30.8112 C49.2970349,29.0252597 51.815738,26.007403 52.9758996,22.3132836 C54.1360611,18.6194149 53.7985415,14.6912239 52.0255677,11.2524896 C50.2527183,7.81362985 47.2568581,5.2765791 43.5900655,4.10847761 C40.0286856,2.97347463 36.2235,3.26534328 32.8746878,4.93029851 C29.8399978,6.43928955 27.4651638,8.93208358 26.1011463,12.0137552 C22.9243297,9.69385075 19.0725983,8.60097313 15.148559,8.92543881 L15.2710218,10.4249015 C19.1411725,10.1040716 22.9337882,11.3008836 25.9505568,13.7945552 C28.1950873,15.6480716 29.8423624,18.1111522 30.7144127,20.9173791 C31.2662424,22.6939164 31.4862773,24.5274985 31.3686681,26.3667224 L32.8590066,26.4633851 C32.9885633,24.4391104 32.7466245,22.4218567 32.139786,20.4680418 C31.2351288,17.5566269 29.5708035,14.9814627 27.3124585,12.9867761 C29.8513231,6.75008955 36.6987904,3.48988657 43.1397904,5.54274627 C46.4261266,6.58973731 49.1112249,8.86362985 50.7003799,11.9456776 C52.2894105,15.0278507 52.5918341,18.5484537 51.5520197,21.8593075 C50.5122052,25.1701612 48.2547314,27.8750866 45.195524,29.4758507 C42.1358188,31.0767403 38.6411463,31.3812716 35.3545611,30.3335284 C34.1818297,29.960794 33.0729432,29.4243224 32.057024,28.7376537 C31.2230568,28.1767343 30.4559214,27.5138866 29.7711747,26.7662866 C29.8865437,25.6302806 29.8582926,24.4838687 29.6836834,23.3525015 C29.5815066,22.6907821 29.4283035,22.0291881 29.2288035,21.3861493 C28.6151201,19.4100179 27.5927293,17.6516597 26.1903799,16.1597194 C24.4959367,14.3556 22.3400175,13.0584896 19.9559738,12.4086806 C17.5057205,11.7406925 14.9241681,11.7930985 12.4909651,12.5601313 C9.03026856,13.6507522 6.21860044,16.0445015 4.57344105,19.3003164 L5.90422926,19.9827224 C7.36556987,17.0908657 9.86311572,14.9646627 12.9367598,13.9959045 C17.195083,12.6540358 21.7380328,13.7904179 24.8766419,16.9583463 C24.6186485,20.7859881 25.903762,24.6158866 28.4305546,27.516394 Z M28.2079061,23.5840657 C28.2742402,24.0138448 28.3163057,24.4461313 28.3354716,24.8791701 C27.189,23.0447104 26.5097293,20.9439582 26.3663581,18.787791 C26.9822817,19.7213194 27.4632969,20.740603 27.8033057,21.8354866 C27.9809017,22.4075642 28.1170546,22.9958149 28.2079061,23.5840657 Z" id="Shape"></path>
                    </g>
                    <g id="Group" transform="translate(2.000000, 0.000000)">
                        <path d="M2.29438406,3.1636699 L0.0837681159,8.52635922 L10.6571522,12.9074854 L16.9081014,3.13350485 L12.1086812,0.0177961165 L2.29438406,3.1636699 Z M14.1358696,3.12668932 L11.4800507,3.978 L10.0455217,2.26603883 L11.896058,1.67283495 L14.1358696,3.12668932 Z M5.46562319,7.49279612 L7.6977971,10.0476117 L3.24773913,8.20375728 L5.46562319,7.49279612 Z M10.3608841,5.92358252 L9.83856522,10.226835 L7.01557971,6.9958932 L10.3608841,5.92358252 Z M6.54968116,5.5584466 L6.77610145,3.3141165 L8.50973188,2.75839806 L9.94426087,4.47035922 L6.54968116,5.5584466 Z M11.9109638,5.42680583 L14.1287246,4.71597087 L11.497913,8.82927184 L11.9109638,5.42680583 Z M5.24031159,3.80634951 L5.0138913,6.05067961 L2.35794928,6.90199029 L3.38952899,4.3995534 L5.24031159,3.80634951 Z" id="Shape"></path>
                    </g>
                </g>
                <g id="Oval" fill="black" fill-opacity="1">
                    <use filter="url(#filter-2)" xlink:href="#path-1"></use>
                </g>
            </g>
        </g>
    </g>
</svg>