<svg xmlns="http://www.w3.org/2000/svg" viewBox="0 0 32 32" x="0px" y="0px">
  <g data-name="Layer 2" fill="currentcolor">
    <path d="M6.06,20.09A2.79,2.79,0,0,0,8.53,21.6H23.46a2.8,2.8,0,0,0,2.8-2.8V17.14s0,0,0,0V4.8A2.8,2.8,0,0,0,23.46,2H8.53a2.8,2.8,0,0,0-2.8,2.8v14A2.77,2.77,0,0,0,6,20,.91.91,0,0,0,6.06,20.09Zm2.14-.42,3.44-3.44a.94.94,0,0,1,1.32,0l2,2h0l1.54,1.54H8.53A.92.92,0,0,1,8.2,19.67Zm15.26.07H19.1L16.9,17.53,20,14.44a1,1,0,0,1,1.32,0l3.08,3.08V18.8A.93.93,0,0,1,23.46,19.74ZM24.4,4.8V14.88l-1.76-1.76a2.87,2.87,0,0,0-4,0l-3.09,3.09-1.3-1.3a2.8,2.8,0,0,0-4,0L7.6,17.63V9.54a4.24,4.24,0,0,0,5.68-5.68H23.46A.93.93,0,0,1,24.4,4.8ZM8.53,3.87h2.39a2.36,2.36,0,0,1,.93,1.87A2.39,2.39,0,0,1,9.46,8.11,2.33,2.33,0,0,1,7.6,7.18V4.8A.93.93,0,0,1,8.53,3.87Z"/>
    <path d="M8.07,27.2a2.33,2.33,0,1,0-2.33-2.33A2.34,2.34,0,0,0,8.07,27.2Zm0-2.8a.47.47,0,1,1-.47.47A.47.47,0,0,1,8.07,24.4Z"/>
    <path d="M25.34,23.93H13.2a.93.93,0,0,0,0,1.87H25.34a.93.93,0,0,0,0-1.87Z"/>
    <path d="M25.34,28.13H6.66a.93.93,0,0,0,0,1.87H25.34a.93.93,0,0,0,0-1.87Z"/>
    <path d="M9.46,10.61a.93.93,0,0,0-.93.93V13.2a.93.93,0,0,0,1.87,0V11.54A.93.93,0,0,0,9.46,10.61Z"/>
    <path d="M12.91,9.18a.93.93,0,0,0,0,1.32l1.17,1.17a.93.93,0,1,0,1.32-1.32L14.23,9.18A.93.93,0,0,0,12.91,9.18Z"/>
    <path d="M15.27,6.67h1.66a.93.93,0,0,0,0-1.87H15.27a.93.93,0,0,0,0,1.87Z"/>
  </g>
</svg>