<?xml version="1.0" encoding="UTF-8"?>
<svg viewBox="0 0 80 94" version="1.1" 
    xmlns="http://www.w3.org/2000/svg" 
    xmlns:xlink="http://www.w3.org/1999/xlink">
    <g id="Page-1" stroke="none" stroke-width="1" fill="none" fill-rule="evenodd">
        <g fill="currentcolor" fill-rule="nonzero">
            <g id="Group">
                <g>
                    <path d="M77.57,76.07 L2.43,76.07 C1.88,76.07 1.43,75.62 1.43,75.07 C1.43,74.52 1.88,74.07 2.43,74.07 L77.58,74.07 C78.13,74.07 78.58,74.52 78.58,75.07 C78.58,75.62 78.13,76.07 77.57,76.07 Z" id="Path"></path>
                    <path d="M12.13,51.070309 C11.3,51.070309 10.53,50.55 10.24,49.73 L1.13,23.62 C1.01,23.29 0.99,22.93 1.05,22.59 L1.93,17.95 C4.63,6.41 10.57,0.61 19.61,0.61 L60.39,0.61 C69.43,0.61 75.37,6.42 78.05,17.87 L78.95,22.59 C79.02,22.93 78.99,23.29 78.87,23.62 L69.76,49.73 C69.4,50.77 68.26,51.32 67.21,50.96 C66.17,50.6 65.62,49.46 65.98,48.41 L74.91,22.81 L74.13,18.7 C71.88,9.12 67.51,4.61 60.38,4.61 L19.61,4.61 C12.48,4.61 8.11,9.11 5.84,18.78 L5.08,22.81 L14.01,48.41 C14.37,49.45 13.82,50.59 12.78,50.96 C12.57,51.03 12.35,51.070309 12.13,51.070309 Z" id="Path"></path>
                    <path d="M54.66,63.79 C54.11,63.79 53.66,63.34 53.66,62.79 C53.66,55.26 47.53,49.13 39.99,49.13 C32.46,49.13 26.33,55.26 26.33,62.79 C26.33,63.34 25.88,63.79 25.33,63.79 C24.78,63.79 24.33,63.34 24.33,62.79 C24.33,54.15 31.36,47.13 39.99,47.13 C48.63,47.13 55.66,54.16 55.66,62.79 C55.66,63.35 55.22,63.79 54.66,63.79 Z" id="Path"></path>
                    <path d="M39.98,48.79 C39.7,48.79 39.43,48.67 39.23,48.45 L29.91,37.88 C29.62,37.55 29.58,37.08 29.8,36.7 L32.23,32.67 C32.41,32.37 32.74,32.19 33.09,32.19 L34.1,32.19 C34.12,32.19 34.13,32.19 34.15,32.19 L46.9,32.19 C47.25,32.19 47.57,32.37 47.76,32.67 L50.19,36.7 C50.42,37.07 50.37,37.55 50.08,37.88 L40.77,48.45 C40.57,48.68 40.27,48.79 40,48.79 C40,48.79 39.99,48.79 39.98,48.79 Z M35.62,34.19 L40.32,45.93 L48.1,37.11 L46.34,34.19 L35.62,34.19 Z M31.9,37.11 L36.9,42.78 L33.54,34.4 L31.9,37.11 Z" id="Shape"></path>
                    <path d="M76.79,22.4 L3.22,22.4 C2.67,22.4 2.22,21.95 2.22,21.4 C2.22,20.85 2.67,20.4 3.22,20.4 L76.79,20.4 C77.34,20.4 77.79,20.85 77.79,21.4 C77.79,21.95 77.34,22.4 76.79,22.4 Z" id="Path"></path>
                    <path d="M35.2,49.58 L12.63,49.58 C12.08,49.58 11.63,49.13 11.63,48.58 C11.63,48.03 12.08,47.58 12.63,47.58 L35.2,47.58 C35.75,47.58 36.2,48.03 36.2,48.58 C36.2,49.13 35.75,49.58 35.2,49.58 Z" id="Path"></path>
                    <path d="M73.51,93.39 L6.49,93.39 C3.22,93.39 0.56,90.73 0.56,87.46 L0.56,74.29 C0.56,74.05 0.6,73.81 0.69,73.58 L10.25,48.36 C10.64,47.33 11.8,46.81 12.83,47.2 C13.86,47.59 14.38,48.75 13.99,49.78 L4.56,74.66 L4.56,87.46 C4.56,88.52 5.42,89.39 6.49,89.39 L73.5,89.39 C74.56,89.39 75.43,88.52 75.43,87.46 L75.43,74.66 L66,49.78 C65.61,48.75 66.13,47.59 67.16,47.2 C68.19,46.81 69.35,47.33 69.74,48.36 L79.3,73.58 C79.39,73.81 79.43,74.05 79.43,74.29 L79.43,87.46 C79.43,90.73 76.77,93.39 73.51,93.39 Z" id="Path"></path>
                    <path d="M65.3,49.58 L44.8,49.58 C44.25,49.58 43.8,49.13 43.8,48.58 C43.8,48.03 44.25,47.58 44.8,47.58 L65.3,47.58 C65.85,47.58 66.3,48.03 66.3,48.58 C66.3,49.13 65.85,49.58 65.3,49.58 Z" id="Path"></path>
                </g>
                <path d="M59.27,63.79 L21.39,63.79 C20.84,63.79 20.39,63.34 20.39,62.79 C20.39,62.24 20.84,61.79 21.39,61.79 L59.27,61.79 C59.82,61.79 60.27,62.24 60.27,62.79 C60.27,63.34 59.83,63.79 59.27,63.79 Z" id="Path"></path>
                <path d="M68.41,14.36 C68.03,14.36 67.66,14.14 67.49,13.77 C65.33,8.92 59.51,8.84 59.26,8.84 C58.71,8.84 58.26,8.39 58.26,7.84 C58.26,7.29 58.71,6.84 59.26,6.84 C59.56,6.84 66.62,6.91 69.31,12.96 C69.53,13.46 69.31,14.06 68.8,14.28 C68.69,14.33 68.55,14.36 68.41,14.36 Z" id="Path"></path>
                <path d="M39.98,48.79 C39.86,48.79 39.74,48.77 39.62,48.72 C39.11,48.52 38.85,47.94 39.05,47.43 L44.68,32.84 C44.88,32.33 45.46,32.07 45.97,32.27 C46.48,32.47 46.74,33.05 46.54,33.56 L40.91,48.15 C40.76,48.54 40.39,48.79 39.98,48.79 Z" id="Path"></path>
                <path d="M40,46.44 C39.45,46.44 39,45.99 39,45.44 L38.98,33.19 C38.98,32.64 39.43,32.19 39.98,32.19 L39.98,32.19 C40.53,32.19 40.98,32.64 40.98,33.19 L41,45.44 C41,45.99 40.55,46.44 40,46.44 L40,46.44 Z" id="Path"></path>
            </g>
        </g>
    </g>
</svg>