<?xml version="1.0" encoding="UTF-8"?>
<svg viewBox="0 0 282 300" version="1.1" 
    xmlns="http://www.w3.org/2000/svg" 
    xmlns:xlink="http://www.w3.org/1999/xlink">
    <g id="Page-1" stroke="none" stroke-width="1" fill="none" fill-rule="evenodd">
        <g id="noun_Table_3108109" fill="currentcolor" fill-rule="nonzero">
            <path d="M281.7,60.12 L281.7,60.12 C281.7,60 281.7,59.94 281.7,59.88 C281.7,59.7 281.64,59.52 281.64,59.34 C281.64,59.22 281.64,59.04 281.58,58.92 C277.08,25.56 216.96,0 141,0 C66,0 6.42,24.9 0.6,57.6 C0.24,58.38 0,59.22 0,60.12 L0.3,87.24 C0.3,103.92 15.6,119.16 43.44,130.14 C64.5,138.48 91.14,143.76 119.94,145.5 L119.94,225.24 L76.92,246.36 C76.8,246.42 76.68,246.48 76.56,246.54 C72.84,248.7 70.56,252.6 70.56,256.92 C70.56,261.24 72.78,265.14 76.56,267.3 L126,295.98 C130.62,298.68 135.78,300 140.94,300 C146.1,300 151.26,298.68 155.88,295.98 L205.32,267.3 C209.04,265.14 211.32,261.24 211.32,256.92 C211.32,252.6 209.1,248.7 205.32,246.54 C205.2,246.48 205.08,246.42 204.96,246.36 L161.94,225.24 L161.94,145.5 C190.86,143.76 217.56,138.48 238.74,130.14 C266.58,119.16 281.88,103.92 281.88,87.18 C282,87.18 281.82,61.02 281.7,60.12 Z M141,11.1 C216.42,11.1 267.78,36.36 270.66,60.72 L270.72,64.62 C268.32,89.1 216.84,114.6 141,114.6 C63.36,114.6 11.22,87.84 11.22,62.88 C11.22,37.92 63.36,11.1 141,11.1 Z M199.98,256.26 C200.1,256.38 200.34,256.56 200.34,256.98 C200.34,257.46 200.04,257.7 199.92,257.76 L150.48,286.44 C144.66,289.8 137.46,289.8 131.7,286.44 L82.26,257.76 C82.14,257.7 81.84,257.52 81.84,256.98 C81.84,256.56 82.02,256.38 82.2,256.26 L120.06,237.66 L120.06,259.68 C120.06,261.18 120.66,262.68 121.8,263.7 C127.2,268.86 134.16,271.5 141.18,271.5 C148.14,271.5 155.1,268.92 160.56,263.7 C161.64,262.62 162.3,261.18 162.3,259.68 L162.3,237.6 L199.98,256.26 Z M150.96,257.04 C145.02,261.36 136.92,261.36 130.98,257.04 L130.98,145.98 C134.34,146.1 137.7,146.16 141.12,146.16 C144.42,146.16 147.72,146.1 150.96,145.98 L150.96,257.04 L150.96,257.04 Z M234.78,119.76 C209.88,129.6 176.58,135 141.12,135 C105.66,135 72.42,129.6 47.46,119.76 C25.02,110.88 11.94,99.36 11.4,87.9 C32.7,110.34 82.08,125.7 141,125.7 C200.16,125.7 249.78,110.22 270.9,87.6 C270.6,99.12 257.52,110.82 234.78,119.76 Z" id="Shape"></path>
        </g>
    </g>
</svg>